<svg width="151" height="111" fill="none" xmlns="http://www.w3.org/2000/svg"><path fill="#fff" d="M0 .5h151v110H0z"/><path d="M20.509 69.92h-5.123v-8.523h5.373v-5.472h-5.373v-8.528h5.373V36.474H16.46v-7.232h4.298V11.75h27.905v7.906h4.298v14.543h-4.298v21.02h6.552v3.223h12.92V53.07H81.84v2.107h9.909V82.16h-9.567v3.113h-.341v5.372h-8.522v-5.372H68.41v5.372h-8.517v-5.372h-5.294V82.16h-4.027v5.372h-8.518V82.16h-6.862v5.372H22.797V82.16H20.76V69.92h-.25z" fill="#809EEB" fill-opacity=".2" stroke="#809EEB" stroke-width=".5"/><path d="M130.052 86.37h3.798v12.726h-8.671v-4.292h-10.154v4.292H99.181V81.904l-.506.006-6.675.084V55.502l2.607-.075h2.125v-8.932H95.1v-10.16h-5.372v-9.53H95.1v-6.672h-5.372V12h41.005v6.747h5.372v8.023h-5.372v4.976h5.372v9.313h-5.372v5.73h5.372v8.886h-5.372v.583l-1.173 6.683-.007.043V86.37h.5z" fill="#003DD6" stroke="#fff"/><path d="M107.24 74.5h2.48l1.34-3.4h6.92l1.34 3.4h2.48l-5.76-14H113l-5.76 14zm4.6-5.4l2.68-6.78 2.68 6.78h-5.36zm-83.4 5.4h7c2.6 0 4.6-1.6 4.6-3.8 0-1.8-1.1-3-2.7-3.4 1.4-.6 2.2-1.72 2.2-3.1 0-2.1-1.9-3.7-4.5-3.7h-6.6v14zm2.2-8.2v-3.7h4.3c1.3 0 2.4.6 2.4 1.8 0 1.2-.8 1.9-2.4 1.9h-4.3zm0 6.1v-4.1h4.7c1.5 0 2.4 1 2.4 2.1 0 1.2-1 2-2.4 2h-4.7z" fill="#fff"/></svg>