<svg width="165" height="31" fill="none" xmlns="http://www.w3.org/2000/svg"><path fill-rule="evenodd" clip-rule="evenodd" d="M138.952 30.366h-6.221V10.457h6.221v19.909zM135.841 8.44c2.116 0 3.775-1.681 3.775-3.823 0-2.141-1.659-3.822-3.775-3.822-2.115 0-3.774 1.68-3.774 3.822 0 2.142 1.659 3.823 3.774 3.823zm-24.062 12.052c0-3.454 2.131-5.353 4.902-5.353 2.771 0 4.903 1.898 4.903 5.353 0 3.28-2.175 5.18-4.903 5.18-2.728 0-4.902-1.9-4.902-5.18zm9.588-7.23c-.568-1.069-2.55-3.263-6.014-3.232-5.226.05-9.541 4.117-9.541 10.459s4.231 10.29 9.749 10.29c2.613 0 4.728-1.343 6.014-3.065v2.645h6.015V.96h-6.223v12.304zm-75.2 17.097h6.221V.96h-6.221v29.4zm15.76-9.867c0-3.468 2.31-5.374 4.921-5.374 2.954 0 5.136 1.863 5.136 5.374 0 3.293-2.182 5.2-5.136 5.2-2.567 0-4.921-1.95-4.921-5.2zm9.832-7.44c-1.037-1.679-3.317-3.022-6.014-3.022-5.268 0-9.749 4.116-9.749 10.459 0 6.384 4.315 10.29 9.956 10.29 2.655 0 4.729-1.384 6.014-3.275v2.855h6.016V10.45h-6.223v2.603zM82.792 30.36V10.45h6.221v2.81c1.204-1.806 3.444-3.23 5.808-3.23 4.48 0 7.26 2.73 7.26 7.309v13.02h-6.223V18.81c0-2.31-1.286-3.856-3.319-3.856-2.156 0-3.526 1.554-3.526 4.41V30.36h-6.221zm66.122-9.868c0-3.47 2.312-5.378 4.925-5.378 2.955 0 5.14 1.866 5.14 5.378 0 3.296-2.185 5.204-5.14 5.204-2.57 0-4.925-1.952-4.925-5.204zm9.863-7.439c-1.036-1.68-3.317-3.022-6.014-3.022-5.268 0-9.747 4.117-9.747 10.458 0 6.384 4.313 10.29 9.955 10.29 2.655 0 4.728-1.384 6.015-3.274v2.854H165V10.451h-6.223v2.602zM6.214 10.452v10.042c0 3.095 1.17 4.79 3.608 4.79s3.618-1.695 3.618-4.79V10.452h6.205v10.255c0 6.054-3.73 10.089-9.823 10.089S0 26.76 0 20.707V10.452h6.214zm27.313 14.83c1.777 0 2.887-.9 3.356-2.589h6.324c-.737 4.934-4.28 8.102-9.68 8.102-6.094 0-9.823-4.035-9.823-10.088V3.69h6.223v6.762h10.066v5.04H29.927v5.352c.087 2.87 1.257 4.44 3.6 4.44z" fill="#fff"/></svg>