<svg width="1531" height="928" fill="none" xmlns="http://www.w3.org/2000/svg"><path opacity=".5" d="M327 795.5v-64L931.5 698l353.5 42h116.5l63 12v48H1285l-353.5-11.5-604.5 7z" fill="#003DD6"/><path opacity=".5" d="M327 728.5v-64l604.5-59 353.5 72h116.5l63 23v48l-63-11H1285L931.5 696 327 728.5z" fill="#003DD6"/><path opacity=".5" d="M327 662v-64l604.5-87L1285 614.5h116.5l63 35v48l-63-23H1285l-353.5-73L327 662z" fill="#003DD6"/><path opacity=".5" d="M440 497.5v-64L930.5 326 1284 503h116.5l63 48v48l-63-36H1284L930.5 416.5l-490.5 81z" fill="#003DD6"/><path opacity=".5" d="M327 597v-54l116.5-43.5 488-80.5L1285 565.5h116.5l63 36v48l-63-36.5-116.5.5-353.5-104L327 597z" fill="#003DD6"/><path opacity=".5" d="M441 427.5v-64L931.5 232 1285 454.5l116.5-7.5 63 44v55l-63-46.5-116.5-2-353.5-175-490.5 105z" fill="#003DD6"/><path opacity=".5" d="M644 307v-67l287.5-95L1285 399l116.5-19 63 50.5v55l-63-42-116.5 7-353.5-222L644 307z" fill="#003DD6"/><path opacity=".5" d="M644 237v-85L931.5 45 1131 168v33l27.5-7.5 45.5 41 26.5-6.5 94 57.5v94L1285 395 931.5 142 644 237z" fill="#003DD6"/></svg>