<svg width="192" height="121" fill="none" xmlns="http://www.w3.org/2000/svg"><path d="M192 .245L15.905 83.39l2.932-13.546L.54 59.23 192 .245z" fill="url(#paint0_linear)"/><path d="M192 .245L60.94 94.358l22.995 26.535h25.931L192 .245z" fill="url(#paint1_linear)"/><path d="M192 .245L91.72 47.403l9.503 30.68L192 .245z" fill="url(#paint2_linear)"/><path d="M192 .245L91.72 47.403l9.503 30.68L192 .245z" fill="url(#paint3_linear)"/><path d="M191.999.245L91.721 47.403l-16.73 1.162-9.907-9.199L191.999.246z" fill="url(#paint4_linear)"/><path d="M192 .245l-81.274 58.227-9.502 19.61L192 .246z" fill="url(#paint5_linear)"/><path d="M192 .245l-81.274 58.227-9.502 19.61L192 .246z" fill="url(#paint6_linear)"/><path d="M192 .245l-81.274 58.227 12.686 13.95 15.568 5.66L192 .246z" fill="url(#paint7_linear)"/><path d="M138.979 78.083l-15.567-5.661-12.687-13.95-9.502 19.61-9.502-30.68-16.73 1.163-9.907-9.199 10.26 8.896 16.63-.96 9.35 29.467 9.401-18.297 12.737 13.343 15.517 6.268z" fill="#fff"/><defs><linearGradient id="paint0_linear" x1="145.28" y1="17.072" x2="29.592" y2="62.834" gradientUnits="userSpaceOnUse"><stop offset=".557" stop-color="#003DD6" stop-opacity=".45"/><stop offset=".938" stop-color="#2CFFF6" stop-opacity="0"/></linearGradient><linearGradient id="paint1_linear" x1="160.019" y1="24.661" x2="71.516" y2="41.176" gradientUnits="userSpaceOnUse"><stop offset=".557" stop-color="#003DD6" stop-opacity=".45"/><stop offset=".938" stop-color="#2CFFF6" stop-opacity="0"/></linearGradient><linearGradient id="paint2_linear" x1="153.662" y1="65.38" x2="138.834" y2="13.211" gradientUnits="userSpaceOnUse"><stop stop-color="#D4D1D8"/><stop offset="1" stop-color="#fff"/></linearGradient><linearGradient id="paint3_linear" x1="144.471" y1="34.451" x2="139.895" y2="24.383" gradientUnits="userSpaceOnUse"><stop stop-color="#E7E7E7"/><stop offset="1" stop-color="#E6E7E8"/></linearGradient><linearGradient id="paint4_linear" x1="44.281" y1="-28.637" x2="127.992" y2="21.128" gradientUnits="userSpaceOnUse"><stop stop-color="#9B989F"/><stop offset="1" stop-color="#fff"/></linearGradient><linearGradient id="paint5_linear" x1="103.878" y1="45.05" x2="146.713" y2="39.147" gradientUnits="userSpaceOnUse"><stop stop-color="#D4D1D8"/><stop offset="1" stop-color="#fff"/></linearGradient><linearGradient id="paint6_linear" x1="144.605" y1="81.328" x2="145.727" y2="57.761" gradientUnits="userSpaceOnUse"><stop stop-color="#fff"/><stop offset="1" stop-color="#DEDFE0"/></linearGradient><linearGradient id="paint7_linear" x1="211.745" y1="71.412" x2="146.304" y2="28.944" gradientUnits="userSpaceOnUse"><stop stop-color="#D4D1D8"/><stop offset="1" stop-color="#fff"/></linearGradient></defs></svg>