<svg width="105" height="87" fill="none" xmlns="http://www.w3.org/2000/svg"><path fill-rule="evenodd" clip-rule="evenodd" d="M61.747 28.343h7.086V0h-7.086v28.343z" fill="#fff"/><path d="M34.498 67.943H70.21v-7.289h-25.8c1.239-5.174 8.381-7.725 14.868-11.37 5.757-3.279 10.932-7.87 10.932-16.543 0-9.475-6.414-16.545-18.22-16.545-11.297 0-18.586 7.653-18.586 16.763 0 3.936 1.24 7.799 4.009 11.297l6.56-4.373c-1.896-2.04-2.916-4.665-2.916-7.07 0-5.32 4.373-9.693 10.568-9.693 6.924 0 10.932 4.373 10.932 10.058 0 8.163-7.288 10.13-14.94 14.358-6.706 3.717-13.12 9.11-13.12 20.407z" fill="#003DD6"/><path fill-rule="evenodd" clip-rule="evenodd" d="M65.524 86.618h6.298V66.466h-6.298v20.152zm6.97-26.063c0 2.168-1.68 3.87-3.821 3.87s-3.82-1.702-3.82-3.87c0-2.167 1.679-3.869 3.82-3.869 2.142 0 3.82 1.702 3.82 3.87zM43.687 71.04c-2.805 0-4.962 1.922-4.962 5.419 0 3.32 2.2 5.243 4.962 5.243 2.761 0 4.963-1.923 4.963-5.243 0-3.496-2.158-5.419-4.963-5.419zm-1.344-5.17c3.506-.033 5.512 2.189 6.088 3.271V56.686h6.299v29.76h-6.09V83.77c-1.3 1.743-3.442 3.102-6.087 3.102-5.585 0-9.868-3.996-9.868-10.416s4.367-10.537 9.658-10.587zm48.105-50.535c-2.765 0-5.212 1.953-5.212 5.505 0 3.33 2.493 5.328 5.212 5.328 3.128 0 5.438-1.954 5.438-5.328 0-3.596-2.31-5.505-5.438-5.505zm-1.168-5.212c2.855 0 5.27 1.375 6.368 3.096v-2.666h6.59V30.95h-6.37v-2.925c-1.362 1.937-3.557 3.355-6.369 3.355-5.974 0-10.543-4.002-10.543-10.542 0-6.499 4.745-10.715 10.324-10.715zM3.037 86.374V66.222h6.298v2.844c1.218-1.829 3.486-3.27 5.879-3.27 4.534 0 7.348 2.763 7.348 7.398v13.18h-6.299V74.682c0-2.338-1.301-3.903-3.359-3.903-2.183 0-3.57 1.573-3.57 4.464v11.131H3.038zm90.535-15.432c-2.645 0-4.986 1.932-4.986 5.444 0 3.292 2.384 5.267 4.986 5.267 2.991 0 5.203-1.93 5.203-5.267 0-3.555-2.212-5.444-5.203-5.444zm-1.089-5.145c2.73 0 5.038 1.359 6.088 3.059v-2.634h6.299v20.152h-6.088v-2.89c-1.303 1.914-3.401 3.315-6.089 3.315-5.71 0-10.077-3.953-10.077-10.416 0-6.419 4.534-10.586 9.867-10.586zM6.403 10.123v10.493c0 3.234 1.207 5.004 3.719 5.004 2.513 0 3.729-1.77 3.729-5.004V10.123h6.394v10.715c0 6.326-3.843 10.542-10.123 10.542C3.843 31.38 0 27.164 0 20.838V10.123h6.403zM45.061 23.92c-.487 1.767-1.64 2.708-3.484 2.708-2.433 0-3.647-1.641-3.737-4.642V16.39h10.45v-5.27H37.84V4.05h-6.46v17.795c0 6.33 3.871 10.548 10.197 10.548 5.605 0 9.283-3.312 10.048-8.471H45.06z" fill="#fff"/></svg>