<svg width="85" height="101" fill="none" xmlns="http://www.w3.org/2000/svg"><path fill-rule="evenodd" clip-rule="evenodd" d="M85 0H0v101h85V0zM73 14H12v72h61V14zm-61-2h-2v76h65V12H12zm22.306 67H26.67a1.687 1.687 0 01-1.181-.483A1.648 1.648 0 0125 77.349V28.651a1.634 1.634 0 01.489-1.168A1.67 1.67 0 0126.67 27h20.433a15.99 15.99 0 0111.241 4.602A15.62 15.62 0 0163 42.712a15.62 15.62 0 01-4.656 11.11 15.992 15.992 0 01-11.24 4.601H35.975V77.35c0 .438-.176.858-.489 1.167a1.68 1.68 0 01-1.181.484zm12.797-48.698H28.341v45.396h4.295V56.773a1.634 1.634 0 01.489-1.168 1.674 1.674 0 011.181-.483h12.797a12.63 12.63 0 008.879-3.635 12.337 12.337 0 003.677-8.775c0-3.292-1.322-6.448-3.677-8.775a12.63 12.63 0 00-8.879-3.635zM47.003 51H34.618A1.616 1.616 0 0133 49.382V36.618A1.618 1.618 0 0134.617 35h12.387A7.994 7.994 0 0155 43a8.002 8.002 0 01-7.996 8zm0-12.765h-10.77v9.53h10.77A4.762 4.762 0 0051.768 43a4.766 4.766 0 00-4.763-4.765z" fill="#003DD6"/></svg>