<svg width="11" height="25" fill="none" xmlns="http://www.w3.org/2000/svg"><path d="M10.158 23.691c-.254.317-.626.53-1.048.576l-5.372.603a2.33 2.33 0 01-1.726-.499 2.33 2.33 0 01-.866-1.575l-.592-5.373a1.562 1.562 0 01.803-1.544 1.56 1.56 0 011.73.148l2.804 2.243C9.767 13.427 8.978 6.333 4.134 2.458l-.976-.781a.781.781 0 11.976-1.22l.976.78a12.729 12.729 0 014.73 8.59 12.73 12.73 0 01-2.728 9.42 1.564 1.564 0 01-2.197.244l-2.804-2.243a.024.024 0 00-.004.002v.002l.592 5.373a.777.777 0 00.289.526c.163.13.368.19.576.166l5.372-.602h.002l.002-.005-.67-.535a.781.781 0 01.977-1.22l.668.535a1.568 1.568 0 01.243 2.201z" fill="#1A1B1F"/></svg>