<svg width="149" height="30" fill="none" xmlns="http://www.w3.org/2000/svg"><path d="M7.297 10.025H0v7.298h7.297v-7.298zM22.376.296H0v7.095h22.376V.296zm0 9.729H9.933v7.298h12.443v-7.298zm33.953 6.489c-.24.218-.492.424-.754.616a.712.712 0 01-.182.136h-5.475c.206-.16.48-.363.8-.637.544-.456 1.391-1.141 2.577-2.146-1.575-1.635-1.962-3.762-1.962-5.406v-.683C51.333 4.995 53.021 0 62.647 0h.888c2.647 0 4.654.363 6.22.98.343-.25.503-.433.66-.544a.782.782 0 01.183-.138h5.45c-.07.069-.982.754-3.194 2.647 1.573 1.634 1.983 3.716 1.983 5.45v.688c0 3.331-1.596 8.485-11.313 8.485h-.888c-2.658-.006-4.734-.416-6.307-1.054zm2.074-5.978l6.958-5.631a14.167 14.167 0 00-2.282-.16c-4.265 0-4.972 2.234-4.972 3.785v.23a5.204 5.204 0 00.296 1.776zm9.65-1.779v-.22a6.196 6.196 0 00-.206-1.665l-6.957 5.604c.733.107 1.472.153 2.213.138 4.196 0 4.95-2.26 4.95-3.855v-.002zM29.44 5.767V.297h20.802v5.47h-6.81v11.5h-7.169v-11.5H29.44zM120.925.296h-6.958v16.97h6.958V.296zm-24.316 0l-2.35 13.292h-.857L91.054.296H77.479v16.97h6.848V3.976h1.146l2.349 13.29H99.84l2.349-13.29h1.159v13.29h6.848V.296H96.609zm45.38 0v13.292h-1.155L138.204.296h-13.508v16.97h6.848V3.976h1.157l2.632 13.29h13.506V.296h-6.85zm-3.994 23.35v4.89h-.425l-.969-4.89h-4.97v6.243h2.52V25h.427l.968 4.89h4.968v-6.243h-2.519zM6.438 25.284h-3.87v.805H6.32v1.662H2.569v2.14H0v-6.243h6.438v1.636zm2.826 3.676l-.428.931H6.269l2.963-6.243h3.315l2.997 6.243h-2.712l-.427-.932h-3.14zm.714-1.57h1.72l-.855-1.897-.865 1.897zm19.519 2.501v-6.243h2.56v6.243h-2.56zm6.47-1.947h3.693v1.947H33.4v-6.243h2.568v4.296zm2.602-4.296h3.097L43.3 25.72l1.678-2.072h2.736l-3.246 4.045v2.198h-2.553v-2.198l-3.347-4.045zm16.165 0c3.498 0 4.254 1.486 4.254 2.97v.252c0 1.486-.755 3.021-4.254 3.021h-3.937v-6.243h3.937zm-.378 4.508c1.746 0 1.947-.79 1.947-1.386v-.049c0-.563-.201-1.36-1.947-1.36h-.999v2.795h1zm12.22-2.906h-3.962v.67h3.835v1.635h-3.835v.727h4.02v1.61h-6.589v-6.244h6.53v1.602zm.503-1.602h2.97l1.816 3.876 1.806-3.876h2.65l-2.979 6.243h-3.108l-3.155-6.243zm16.365 1.602h-3.962v.67h3.837v1.635h-3.837v.727h4.02v1.61h-6.587v-6.244h6.53v1.602zm3.811 2.694h3.691v1.947h-6.252v-6.243h2.561v4.296zm6.632 1.666c-.143.125-.218.181-.278.227a.253.253 0 01-.065.049H91.53c.074-.059.181-.135.292-.235.202-.167.512-.42.948-.788a2.84 2.84 0 01-.726-1.99v-.252c0-1.25.62-3.088 4.163-3.088h.327c.78-.023 1.557.1 2.29.363.128-.092.182-.16.244-.201a.311.311 0 01.067-.051h1.999c-.026.025-.364.276-1.174.974.492.546.753 1.263.727 1.998v.269c0 1.224-.589 3.12-4.164 3.12h-.327a6.21 6.21 0 01-2.309-.396zm.763-2.2l2.56-2.073a5.381 5.381 0 00-.84-.058c-1.567 0-1.829.823-1.829 1.393v.084c-.002.224.035.447.11.66v-.006zm3.552-.654v-.084a2.238 2.238 0 00-.077-.612l-2.56 2.064c.27.04.543.056.815.05 1.544.006 1.822-.826 1.822-1.413v-.005zm6.038 3.135h-2.56v-6.243h4.723c2.527 0 3.132.872 3.132 2.123v.116c0 1.285-.638 2.216-3.132 2.216h-2.18l.017 1.788zm1.922-3.499c.605 0 .726-.261.726-.521v-.016c0-.227-.116-.496-.726-.496h-1.922v1.033h1.922zm24.218-1.142h-3.964v.672h3.838v1.635h-3.838v.726h4.024v1.612h-6.593v-6.25h6.54l-.007 1.605zm10.843.285v-1.887h7.653v1.887h-2.544v4.36h-2.543v-4.36h-2.566zm-23.706-1.887l-.863 4.89h-.316l-.863-4.89h-4.995v6.243h2.519v-4.89h.422l.864 4.89h4.422l.864-4.89h.427v4.89h2.52v-6.243h-5.001zm-94.373 0l-.864 4.89h-.315l-.864-4.89h-4.996v6.243h2.52v-4.89h.423l.863 4.89h4.423l.863-4.89h.427v4.89h2.52v-6.243h-5z" fill="#fff"/></svg>