<svg width="1531" height="928" fill="none" xmlns="http://www.w3.org/2000/svg"><path opacity=".5" d="M327 862v-64l604.5-4 326.5 9v71.5l-326.5 10L327 862z" fill="#003DD6"/><path opacity=".5" d="M327 795.5v-64L931.5 698l353.5 42h116.5l63 12v48H1285l-353.5-11.5-604.5 7z" fill="#003DD6"/><path opacity=".5" d="M327 728.5v-64l604.5-59 353.5 72h116.5l63 23v48l-63-11H1285L931.5 696 327 728.5z" fill="#003DD6"/><path opacity=".5" d="M327 662v-64l604.5-87L1285 614.5h116.5l63 35v48l-63-23H1285l-353.5-73L327 662z" fill="#003DD6"/><path opacity=".5" d="M440 497.5v-64L930.5 326 1284 503h116.5l63 48v48l-63-36H1284L930.5 416.5l-490.5 81z" fill="#003DD6"/><path opacity=".5" d="M327 597v-54l116.5-43.5 488-80.5L1285 565.5h116.5l63 36v48l-63-36.5-116.5.5-353.5-104L327 597z" fill="#003DD6"/><path opacity=".5" d="M441 427.5v-64L931.5 232 1285 454.5l116.5-7.5 63 44v55l-63-46.5-116.5-2-353.5-175-490.5 105z" fill="#003DD6"/><path opacity=".5" d="M644 307v-67l287.5-95L1285 399l116.5-19 63 50.5v55l-63-42-116.5 7-353.5-222L644 307z" fill="#003DD6"/><path opacity=".5" d="M644 237v-85L931.5 45 1131 168v33l27.5-7.5 45.5 41 26.5-6.5 94 57.5v94L1285 395 931.5 142 644 237z" fill="#003DD6"/><g filter="url(#filter0_d)"><rect x="873" y="381" width="132" height="86" rx="15" fill="#fff"/><rect x="873" y="381" width="132" height="86" rx="15" fill="url(#paint0_linear)"/><rect x="873.5" y="381.5" width="131" height="85" rx="14.5" stroke="url(#paint1_linear)"/></g><path d="M944.552 400.2h-10.536c0 2.88-.216 5.712-.72 9.024l2.208.504c.552-1.2 2.088-2.232 3.792-2.232 2.664 0 3.936 1.704 3.936 3.864s-1.368 3.936-4.08 3.936c-2.352 0-3.696-1.368-4.032-3.576l-2.016.576c.432 3.288 3 4.944 6.048 4.944 3.84 0 6.168-2.568 6.168-6.12 0-3.504-2.496-5.496-5.544-5.496-1.944 0-3.504.864-4.416 1.92.36-1.824.6-3.864.6-5.4h8.592V400.2z" fill="#003DD6"/><path d="M927.418 448.14c3.108 0 4.97-2.17 4.97-5.04 0-2.94-2.072-5.04-4.872-5.04-2.66 0-4.06 1.61-4.508 3.29l1.4.63c.28-1.386 1.26-2.52 3.01-2.52 1.652 0 3.08 1.092 3.388 2.87h-4.368v1.47h4.368c-.266 1.876-1.624 2.94-3.388 2.94-2.17 0-3.29-1.47-3.57-3.08l-1.4.56c.49 2.24 2.198 3.92 4.97 3.92zm8.007-.14h1.47v-5.306h2.1v-1.33h-5.67v1.33h2.1V448zm6.575.14c1.232 0 1.946-.56 2.226-1.26V448h1.4v-4.13c0-1.68-1.05-2.646-2.94-2.646-1.68 0-2.66.896-2.94 2.156l1.33.35c.14-.77.7-1.316 1.61-1.316.84 0 1.54.476 1.54 1.386v.49l-.7-.168a4.822 4.822 0 00-1.176-.14c-1.344 0-2.534.602-2.534 2.128 0 1.33 1.12 2.03 2.184 2.03zm.588-1.26c-.882 0-1.232-.42-1.232-.91 0-.616.518-.882 1.232-.882.266 0 .56.042 1.106.182l.532.14v.07c0 .91-.7 1.4-1.638 1.4zm4.083 1.12h1.89l2.24-2.73V448h1.47v-2.73l2.24 2.73h1.89l-3.01-3.5 2.87-3.136h-1.89l-2.1 2.436v-2.436h-1.47v2.436l-2.1-2.436h-1.89l2.87 3.136-3.01 3.5z" fill="#1A1B1F"/><defs><linearGradient id="paint0_linear" x1="939" y1="381" x2="939" y2="467" gradientUnits="userSpaceOnUse"><stop stop-color="#fff"/><stop offset="1" stop-color="#fff" stop-opacity="0"/></linearGradient><linearGradient id="paint1_linear" x1="873" y1="381" x2="874.175" y2="468.751" gradientUnits="userSpaceOnUse"><stop offset=".912" stop-color="#F2F2F2"/><stop offset="1" stop-color="#F2F2F2" stop-opacity="0"/></linearGradient><filter id="filter0_d" x="858" y="376" width="192" height="146" filterUnits="userSpaceOnUse" color-interpolation-filters="sRGB"><feFlood flood-opacity="0" result="BackgroundImageFix"/><feColorMatrix in="SourceAlpha" values="0 0 0 0 0 0 0 0 0 0 0 0 0 0 0 0 0 0 127 0"/><feMorphology radius="15" in="SourceAlpha" result="effect1_dropShadow"/><feOffset dx="15" dy="25"/><feGaussianBlur stdDeviation="22.5"/><feColorMatrix values="0 0 0 0 0 0 0 0 0 0 0 0 0 0 0 0 0 0 0.1 0"/><feBlend in2="BackgroundImageFix" result="effect1_dropShadow"/><feBlend in="SourceGraphic" in2="effect1_dropShadow" result="shape"/></filter></defs></svg>