<svg width="192" height="146" fill="none" xmlns="http://www.w3.org/2000/svg"><g filter="url(#filter0_d)"><rect x="15" y="5" width="132" height="86" rx="15" fill="#fff"/><rect x="15" y="5" width="132" height="86" rx="15" fill="url(#paint0_linear)"/><rect x="15.5" y="5.5" width="131" height="85" rx="14.5" stroke="url(#paint1_linear)"/></g><path d="M86.552 24.2H76.016c0 2.88-.216 5.712-.72 9.024l2.208.504c.552-1.2 2.088-2.232 3.792-2.232 2.664 0 3.936 1.704 3.936 3.864s-1.368 3.936-4.08 3.936c-2.352 0-3.696-1.368-4.032-3.576l-2.016.576c.432 3.288 3 4.944 6.048 4.944 3.84 0 6.168-2.568 6.168-6.12 0-3.504-2.496-5.496-5.544-5.496-1.944 0-3.504.864-4.416 1.92.36-1.824.6-3.864.6-5.4h8.592V24.2z" fill="#003DD6"/><path d="M69.418 72.14c3.108 0 4.97-2.17 4.97-5.04 0-2.94-2.072-5.04-4.872-5.04-2.66 0-4.06 1.61-4.508 3.29l1.4.63c.28-1.386 1.26-2.52 3.01-2.52 1.652 0 3.08 1.092 3.388 2.87h-4.368v1.47h4.368c-.266 1.876-1.624 2.94-3.388 2.94-2.17 0-3.29-1.47-3.57-3.08l-1.4.56c.49 2.24 2.198 3.92 4.97 3.92zm8.007-.14h1.47v-5.306h2.1v-1.33h-5.67v1.33h2.1V72zm6.575.14c1.231 0 1.945-.56 2.225-1.26V72h1.4v-4.13c0-1.68-1.05-2.646-2.94-2.646-1.68 0-2.66.896-2.94 2.156l1.33.35c.14-.77.7-1.316 1.61-1.316.84 0 1.54.476 1.54 1.386v.49l-.7-.168a4.822 4.822 0 00-1.175-.14c-1.344 0-2.534.602-2.534 2.128 0 1.33 1.12 2.03 2.183 2.03zm.588-1.26c-.882 0-1.232-.42-1.232-.91 0-.616.518-.882 1.232-.882.266 0 .56.042 1.106.182l.531.14v.07c0 .91-.7 1.4-1.637 1.4zM88.67 72h1.89l2.24-2.73V72h1.47v-2.73L96.51 72h1.89l-3.01-3.5 2.87-3.136h-1.89l-2.1 2.436v-2.436H92.8V67.8l-2.1-2.436h-1.89l2.87 3.136-3.01 3.5z" fill="#1A1B1F"/><defs><linearGradient id="paint0_linear" x1="81" y1="5" x2="81" y2="91" gradientUnits="userSpaceOnUse"><stop stop-color="#fff"/><stop offset="1" stop-color="#fff" stop-opacity="0"/></linearGradient><linearGradient id="paint1_linear" x1="15" y1="5" x2="16.175" y2="92.751" gradientUnits="userSpaceOnUse"><stop offset=".912" stop-color="#F2F2F2"/><stop offset="1" stop-color="#F2F2F2" stop-opacity="0"/></linearGradient><filter id="filter0_d" x="0" y="0" width="192" height="146" filterUnits="userSpaceOnUse" color-interpolation-filters="sRGB"><feFlood flood-opacity="0" result="BackgroundImageFix"/><feColorMatrix in="SourceAlpha" values="0 0 0 0 0 0 0 0 0 0 0 0 0 0 0 0 0 0 127 0"/><feMorphology radius="15" in="SourceAlpha" result="effect1_dropShadow"/><feOffset dx="15" dy="25"/><feGaussianBlur stdDeviation="22.5"/><feColorMatrix values="0 0 0 0 0 0 0 0 0 0 0 0 0 0 0 0 0 0 0.1 0"/><feBlend in2="BackgroundImageFix" result="effect1_dropShadow"/><feBlend in="SourceGraphic" in2="effect1_dropShadow" result="shape"/></filter></defs></svg>