<svg width="71" height="65" fill="none" xmlns="http://www.w3.org/2000/svg"><path d="M36.128 9.898c-5.127 0-9.626 2.685-12.17 6.725l2.223 3.342a1.36 1.36 0 01-1.133 2.114h-.373l6.158 9.28A1.36 1.36 0 0129.7 33.47h-.457l3.063 4.656a14.39 14.39 0 003.822.514c7.937 0 14.372-6.434 14.372-14.371S44.065 9.898 36.128 9.898z" fill="#D53030"/><path d="M46.985 6.55l2.385 2.325-.563 3.283a1.363 1.363 0 001.977 1.437l2.949-1.55 2.948 1.55a1.361 1.361 0 001.977-1.437l-.563-3.283 2.386-2.325a1.363 1.363 0 00-.756-2.324l-3.296-.48L54.955.76a1.363 1.363 0 00-2.444 0l-1.474 2.987-3.297.479a1.363 1.363 0 00-.755 2.324zm5.152-.21a1.363 1.363 0 001.026-.745l.57-1.153.569 1.153c.199.402.582.681 1.026.746l1.273.185-.921.898a1.363 1.363 0 00-.392 1.206l.217 1.268-1.138-.599a1.362 1.362 0 00-1.268 0l-1.139.599.218-1.268a1.363 1.363 0 00-.392-1.206l-.921-.898 1.272-.185zm10.707 48.168H58.36V49.34h9.173a2.34 2.34 0 002.063-1.231c.41-.76.37-1.68-.105-2.4l-3.898-5.925a2.347 2.347 0 00.242-2.899L62.28 31.53a2.34 2.34 0 00.201-2.857l-4.35-6.538a1.363 1.363 0 00-2.268 0l-4.35 6.538a2.34 2.34 0 00.2 2.857l-3.554 5.355a2.34 2.34 0 00.242 2.898l-3.898 5.926a2.341 2.341 0 001.958 3.631h9.173v5.168H37.491V31.417l4.045-4.046a1.363 1.363 0 10-1.927-1.927l-2.118 2.118v-5.97a1.363 1.363 0 00-2.725 0v17.795l-3.38-5.137a2.724 2.724 0 00.583-3.645l-5.174-7.796a2.725 2.725 0 00.521-3.6l-6.036-9.07a1.363 1.363 0 00-2.269 0l-6.035 9.07a2.719 2.719 0 00.521 3.6l-5.174 7.796a2.72 2.72 0 00.583 3.645L3.25 42.846a2.72 2.72 0 00-.122 2.789 2.72 2.72 0 002.397 1.43h10.41v7.443H8.442c-4.237 0-7.684 3.447-7.684 7.684v1.445c0 .753.61 1.363 1.363 1.363h67.045c.752 0 1.363-.61 1.363-1.363v-1.444c0-4.238-3.448-7.685-7.685-7.685zM51.58 39.911a1.363 1.363 0 00-.786-2.066l4.076-6.14a1.363 1.363 0 00-.733-2.055l2.861-4.3 2.86 4.3h-.001a1.363 1.363 0 00-.73 2.055L63.17 37.8h-3.5a1.363 1.363 0 000 2.726h3.148l4.006 6.09H47.169l4.41-6.704zm-16.813 7.155v7.442h-10.41v-7.442h10.41zM12.187 34.22a1.363 1.363 0 00-1.368-2.091 1.374 1.374 0 00-.223-.02l5.753-8.667h2.293a1.363 1.363 0 100-2.725h-3.395l4.9-7.363 4.94 7.427a1.363 1.363 0 00-1.547 2.053l6.156 9.275h-9.132a1.363 1.363 0 100 2.725h7.944l6.253 9.506H5.531l6.656-10.12zm6.474 12.846h2.97v7.442h-2.97v-7.442zm49.142 15.209H3.483v-.083a4.965 4.965 0 014.96-4.959h54.401a4.965 4.965 0 014.96 4.96v.082z" fill="#fff"/></svg>