<svg width="70" height="65" fill="none" xmlns="http://www.w3.org/2000/svg"><path d="M26.333.3a1.358 1.358 0 00-1.705 0c-7.035 5.671-11.58 16.337-11.58 27.174 0 3.662.518 7.158 1.525 10.42.009.034.02.067.031.1 1.254 4.012 3.25 7.666 5.945 10.829a1.358 1.358 0 102.068-1.762 27.957 27.957 0 01-5.181-9.151l17.149-17.15c.4 2.194.611 4.449.611 6.714 0 7.827-2.53 14.784-7.317 20.119a1.358 1.358 0 102.021 1.814c5.242-5.84 8.013-13.425 8.013-21.933 0-10.837-4.545-21.503-11.58-27.173zm-.853 2.842c1.917 1.724 3.61 3.872 5.023 6.315L15.926 24.034c.778-8.354 4.334-16.198 9.554-20.892zm-8.895 31.777a33.07 33.07 0 01-.815-6.888l16.047-16.047a35.572 35.572 0 012.057 5.646L16.585 34.92zM55.751 6.796c-3.975 0-7.21 3.234-7.21 7.21s3.235 7.21 7.21 7.21c3.976 0 7.21-3.234 7.21-7.21s-3.234-7.21-7.21-7.21zm0 11.704a4.499 4.499 0 01-4.493-4.494 4.499 4.499 0 014.493-4.494 4.499 4.499 0 014.494 4.494 4.499 4.499 0 01-4.494 4.494zm.001-14.062c.75 0 1.358-.609 1.358-1.359V1.36a1.358 1.358 0 00-2.716 0v1.72c0 .75.608 1.359 1.358 1.359zm0 19.137c-.75 0-1.358.608-1.358 1.358v1.72a1.358 1.358 0 102.716 0v-1.72c0-.75-.608-1.358-1.358-1.358zM68.4 12.648h-1.722a1.358 1.358 0 000 2.716H68.4a1.358 1.358 0 000-2.716zm-22.216 1.358c0-.75-.608-1.358-1.359-1.358h-1.72a1.358 1.358 0 000 2.716h1.72c.75 0 1.359-.608 1.359-1.358zm17.294-6.368c.348 0 .696-.133.96-.398l1.218-1.217a1.358 1.358 0 00-1.921-1.921l-1.217 1.217a1.358 1.358 0 00.96 2.319zM47.065 20.772l-1.217 1.217a1.358 1.358 0 001.92 1.92l1.218-1.216a1.358 1.358 0 00-1.92-1.921zm17.374 0a1.358 1.358 0 10-1.921 1.921l1.217 1.217a1.354 1.354 0 001.92 0c.531-.53.531-1.39 0-1.92l-1.216-1.218zM47.065 7.24a1.354 1.354 0 001.921 0c.53-.53.53-1.39 0-1.92l-1.217-1.218a1.359 1.359 0 00-1.921 1.921l1.217 1.217z" fill="#fff"/><path d="M64.307 44.91c-3.666 0-3.666-2.964-7.33-2.964-3.666 0-3.666 2.965-7.331 2.965-3.665 0-3.665-2.965-7.33-2.965s-3.665 2.965-7.33 2.965c-3.664 0-3.664-2.965-7.33-2.965-3.665 0-3.665 2.965-7.33 2.965-3.664 0-3.664-2.965-7.329-2.965-3.665 0-3.665 2.965-7.33 2.965-2.115 0-3.01-.988-4.092-1.823v9.601c1.083.835 1.977 1.823 4.092 1.823 3.665 0 3.665-2.965 7.33-2.965s3.665 2.965 7.33 2.965 3.665-2.965 7.33-2.965 3.665 2.965 7.33 2.965c3.664 0 3.664-2.965 7.329-2.965 3.665 0 3.665 2.965 7.33 2.965s3.665-2.965 7.33-2.965c3.666 0 3.666 2.965 7.33 2.965 2.116 0 3.01-.988 4.093-1.823v-9.601c-1.082.835-1.977 1.822-4.092 1.822z" fill="#D53030"/><path d="M68.4 65H1.574c-.75 0-1.358-.608-1.358-1.358V52.689a1.358 1.358 0 012.188-1.075c.152.118.302.238.451.36.847.684 1.46 1.18 2.81 1.18 1.353 0 1.965-.496 2.812-1.18.982-.796 2.206-1.786 4.519-1.786s3.536.99 4.519 1.785c.847.685 1.459 1.18 2.81 1.18 1.352 0 1.964-.495 2.811-1.18.983-.795 2.206-1.785 4.52-1.785 2.312 0 3.536.99 4.518 1.785.848.685 1.46 1.18 2.811 1.18 1.352 0 1.964-.495 2.81-1.18.984-.795 2.207-1.785 4.52-1.785 2.313 0 3.536.99 4.519 1.785.847.685 1.459 1.18 2.81 1.18 1.353 0 1.965-.495 2.812-1.18.983-.795 2.206-1.785 4.519-1.785s3.536.99 4.52 1.785c.846.685 1.458 1.18 2.81 1.18s1.964-.495 2.811-1.18c.15-.12.3-.242.452-.36a1.359 1.359 0 012.188 1.076v10.953c0 .75-.608 1.358-1.358 1.358zM2.932 62.284H67.04v-6.997c-.713.34-1.59.583-2.734.583-2.314 0-3.537-.99-4.52-1.785-.847-.685-1.459-1.18-2.81-1.18-1.353 0-1.965.495-2.812 1.18-.983.795-2.206 1.785-4.519 1.785s-3.536-.99-4.52-1.785c-.846-.685-1.458-1.18-2.81-1.18s-1.964.495-2.81 1.18c-.983.795-2.206 1.785-4.52 1.785-2.313 0-3.536-.99-4.519-1.785-.847-.685-1.459-1.18-2.81-1.18-1.352 0-1.964.495-2.811 1.18-.983.795-2.206 1.785-4.52 1.785-2.312 0-3.536-.99-4.518-1.785-.847-.685-1.46-1.18-2.81-1.18-1.353 0-1.965.495-2.812 1.18-.982.795-2.206 1.785-4.519 1.785-1.143 0-2.02-.242-2.733-.583v6.997z" fill="#fff"/></svg>