<svg width="30" height="30" fill="none" xmlns="http://www.w3.org/2000/svg"><path fill-rule="evenodd" clip-rule="evenodd" d="M9.665 2.216a1.87 1.87 0 10-3.676 0H2.217v11.081h3.97a1.87 1.87 0 113.279 0h3.832V9.525a1.87 1.87 0 100-3.676V2.217H9.665z" fill="#809EEB"/><path fill-rule="evenodd" clip-rule="evenodd" d="M27.702 9.664a1.87 1.87 0 100-3.676V2.216h-11.08v3.89a2.008 2.008 0 110 3.718v3.473h3.771a1.87 1.87 0 103.676 0h3.633V9.664z" fill="#CCD8F7"/><path fill-rule="evenodd" clip-rule="evenodd" d="M20.532 27.703a1.87 1.87 0 103.676 0h3.772V16.622h-3.89a2.008 2.008 0 11-3.718 0H16.9v3.771a1.87 1.87 0 100 3.676v3.634h3.633z" fill="#809EEB"/><path fill-rule="evenodd" clip-rule="evenodd" d="M2.216 20.255a1.87 1.87 0 100 3.676v3.772h11.081v-3.89a2.008 2.008 0 110-3.718v-3.474H9.525a1.87 1.87 0 10-3.676 0H2.217v3.634z" fill="#CCD8F7"/></svg>