<svg width="28" height="30" fill="none" xmlns="http://www.w3.org/2000/svg"><path d="M0 25.862h20.172V30H0v-4.138zM18.104 2.586v23.276H1.552V2.586A2.586 2.586 0 014.138 0h11.38a2.586 2.586 0 012.585 2.586z" fill="#809EEB"/><path d="M18.104 6.567v19.295H1.552v-6.564c6.183-2.074 12.304-6.006 16.552-12.731z" fill="#CCD8F7"/><path d="M27.931 26.12v-9.568h-2.069v9.569a1.81 1.81 0 11-3.62 0v-8.018A3.103 3.103 0 0019.137 15h-1.035v2.069h1.035a1.034 1.034 0 011.034 1.034v8.018a3.88 3.88 0 007.76 0z" fill="#809EEB"/><path d="M25.863 16.552h2.069V9.828a1.034 1.034 0 00-.303-.732l-.732-.731V5.172h-3.192l-1.249-1.248a1.035 1.035 0 00-.731-.303h-1.552V5.69h1.034s.004 1.48.005 3.103H24.4l1.463 1.463v6.296z" fill="#CCD8F7"/><path d="M25.862 11.896h-2.586V8.793H21.21c0 .892 0 2.862-.002 3.617a1.551 1.551 0 001.552 1.556h3.1v-2.07zM18.104 3.62h2.069v2.07h-2.07V3.62z" fill="#809EEB"/><path d="M4.138 3.103h11.379v8.276H4.137V3.103z" fill="#CCD8F7"/><path d="M9.827 22.759a2.305 2.305 0 01-2.09-3.282L9.828 15l1.716 3.674.374.803a2.305 2.305 0 01-2.09 3.282z" fill="#809EEB"/><path d="M17.586 25.862h2.586V30h-2.586v-4.138z" fill="#CCD8F7"/><path d="M9.827 22.759a2.282 2.282 0 01-1.833-.907 15.597 15.597 0 003.548-3.178l.375.803a2.307 2.307 0 01-2.09 3.282z" fill="#809EEB"/></svg>