<svg width="38" height="30" fill="none" xmlns="http://www.w3.org/2000/svg"><path d="M20.69 22.241h-3.104V30h3.103v-7.759z" fill="#809EEB"/><path d="M31 22h-3v6h3v-6zm-21 0H7v6h3v-6z" fill="#CCD8F7"/><path fill-rule="evenodd" clip-rule="evenodd" d="M12.427 9.323c0 .231-.018.458-.052.68a4.406 4.406 0 011.992 4.485 4.41 4.41 0 01-2.542 7.859v.004H4.21v-.004a4.41 4.41 0 01-2.362-7.994 4.404 4.404 0 011.833-4.23 4.41 4.41 0 118.747-.8zm21.465 0c0 .231-.017.458-.051.68a4.406 4.406 0 011.992 4.485 4.41 4.41 0 01-2.542 7.859v.004h-7.616v-.004a4.41 4.41 0 01-2.362-7.994 4.405 4.405 0 011.833-4.23 4.41 4.41 0 118.747-.8z" fill="#809EEB"/><path fill-rule="evenodd" clip-rule="evenodd" d="M24.828 5.69c0 .298-.023.59-.068.877a5.685 5.685 0 012.57 5.787 5.69 5.69 0 01-3.28 10.14l.002.006h-9.828v-.006a5.69 5.69 0 01-3.048-10.315 5.683 5.683 0 012.365-5.458A5.69 5.69 0 1124.828 5.69z" fill="#CCD8F7"/></svg>