<svg width="85" height="101" fill="none" xmlns="http://www.w3.org/2000/svg"><path fill-rule="evenodd" clip-rule="evenodd" d="M85 0H0v101h85V0zM73.94 79.762L66.5 60.257a.913.913 0 00-.853-.587h-14.08l.119-.193.138-.224c5.418-8.97 8.145-16.817 8.105-23.32a16.93 16.93 0 10-33.86-.005c-.039 6.508 2.688 14.356 8.106 23.325l.194.315.063.102h-14.08a.912.912 0 00-.853.587l-7.438 19.505A.912.912 0 0012.912 81h60.174a.91.91 0 00.852-1.238zM27.894 35.929a15.105 15.105 0 1130.21.005C58.183 48.898 46.063 64.888 43 68.722c-3.063-3.833-15.183-19.818-15.105-32.793zm14.41 34.827a.914.914 0 001.39 0 96.866 96.866 0 006.727-9.262h14.596l1.168 3.064-28.522 10.144-10.166-13.21h8.079a96.862 96.862 0 006.728 9.264zm-4.672 5.893h.005l17.015-6.05 6.6 8.576H30.535l7.097-2.526zM20.98 61.493h4.214l10.66 13.852-10.765 3.83H14.238l6.743-17.682zm42.577 17.682l-7.097-9.222 10.378-3.69 4.924 12.912h-8.205zM50.75 36.22A7.75 7.75 0 1043 43.972a7.76 7.76 0 007.75-7.75zm-13.664 0A5.915 5.915 0 1143 42.137a5.921 5.921 0 01-5.914-5.916z" fill="#003DD6"/></svg>