<svg width="85" height="101" fill="none" xmlns="http://www.w3.org/2000/svg"><path fill-rule="evenodd" clip-rule="evenodd" d="M85 0H0v101h85V0zM74 49.989c0 8.16-3.222 15.988-8.965 21.784a.9.9 0 01-.263.262 30.948 30.948 0 01-43.567 0 .928.928 0 01-.262-.262 30.993 30.993 0 0143.83-43.83.934.934 0 01.262.262A30.948 30.948 0 0174 49.989zm-23.56 6.16l13.806 13.807h.003a29.11 29.11 0 000-39.934l-5.15 5.15-8.66 20.977zm-9.476-3.388l.003.012 2.425 15.663 13.249-32.102-32.1 13.252 15.666 2.426.008.003h.004a.916.916 0 01.24.079l.048.025c.075.04.144.09.205.15a.901.901 0 01.173.252.91.91 0 01.079.24zm21.991-24.03a29.07 29.07 0 00-19.966-7.927A29.163 29.163 0 0021.73 69.956L38.146 53.54l-17.112-2.65a.912.912 0 01-.208-1.746l36.98-15.263 5.15-5.15zm-23.517 26.1L23.022 71.247a29.11 29.11 0 0039.933 0l-13.27-13.27-5.851 14.174a.912.912 0 01-1.747-.209l-2.649-17.111z" fill="#003DD6"/></svg>