<svg width="85" height="101" fill="none" xmlns="http://www.w3.org/2000/svg"><path fill-rule="evenodd" clip-rule="evenodd" d="M85 0H0v101h85V0zM43.236 20.057l25.008 9.27a.912.912 0 01.594.856v15.888a36.64 36.64 0 01-18.214 31.608l-7.246 4.198a.916.916 0 01-.915 0l-7.246-4.198A36.64 36.64 0 0117 46.07V30.183a.913.913 0 01.594-.856l25.008-9.27a.91.91 0 01.634 0zm19.127 43.335a34.808 34.808 0 004.65-17.321V30.818l-24.094-8.932-24.094 8.932V46.07A34.807 34.807 0 0036.13 76.099l6.789 3.934 6.788-3.934a34.81 34.81 0 0012.656-12.707zM22.595 33.241l19.378-7.184a.91.91 0 01.634 0l19.376 7.184a.913.913 0 01.595.855v12.125A29.905 29.905 0 0147.71 72.019l-4.965 2.877a.911.911 0 01-.914 0l-4.965-2.877A29.903 29.903 0 0122 46.22V34.096a.912.912 0 01.595-.855zm38.16 12.98V34.73L42.29 27.886l-18.465 6.845v11.49a28.074 28.074 0 0013.958 24.218l4.507 2.613 4.507-2.612a28.08 28.08 0 0013.957-24.22zM50.3 43.816l.001.169v.548h2.814v16.36H32v-16.36h2.333v-.548a8.288 8.288 0 01.002-.17 7.985 7.985 0 0115.966 0zm-14.466 0a6.485 6.485 0 0112.965 0H35.835zm15.78 2.217H33.5v13.36h18.115v-13.36zM40.88 52.122l1.76-1.758 1.76 1.758-1.423 1.42 1.422 1.42H40.88l1.422-1.42-1.422-1.42z" fill="#003DD6"/></svg>