<svg width="85" height="101" fill="none" xmlns="http://www.w3.org/2000/svg"><path fill-rule="evenodd" clip-rule="evenodd" d="M85 0H0v101h85V0zM52.664 71.529l.138-.223c.092-.149.184-.297.275-.45 6.187-10.242 9.3-19.202 9.256-26.627a19.332 19.332 0 00-38.665-.007c-.045 7.432 3.069 16.393 9.255 26.635.092.152.184.3.275.448l.138.224c-13.025 1.61-21.66 6.264-21.66 11.791 0 6.94 13.756 12.374 31.324 12.374S74.324 90.26 74.324 83.32c0-5.527-8.635-10.182-21.66-11.791zm-26.912-27.3a17.249 17.249 0 1134.496.006c.09 14.803-13.75 33.061-17.248 37.44-3.498-4.379-17.338-22.637-17.248-37.446zM43 93.61c-17.49 0-29.24-5.32-29.24-10.29 0-4.406 8.712-8.507 20.804-9.836a110.37 110.37 0 007.642 10.513 1.042 1.042 0 001.588 0 110.341 110.341 0 007.643-10.513c12.088 1.33 20.803 5.427 20.803 9.836 0 4.97-11.75 10.29-29.24 10.29zm-8.52-6.036c-4.625-.592-8.338-1.634-10.45-2.933a1.042 1.042 0 10-1.092 1.775c2.36 1.451 6.365 2.597 11.277 3.225a1.042 1.042 0 00.264-2.067zm5.829.47a75.21 75.21 0 004.441.028 1.033 1.033 0 011.067 1.019 1.042 1.042 0 01-1.018 1.066 74.658 74.658 0 01-4.567-.03 1.042 1.042 0 11.077-2.084zm11.49-43.815A8.8 8.8 0 1043 53.03a8.81 8.81 0 008.8-8.801zm-15.515 0A6.716 6.716 0 1143 50.946a6.724 6.724 0 01-6.716-6.717z" fill="#003DD6"/></svg>