<svg width="585" height="543" fill="none" xmlns="http://www.w3.org/2000/svg"><path opacity=".5" d="M212.5 206.5V194H128v93h-11v89h103.5v-83h-5v-86.5h-3z" fill="#003DD6"/><path opacity=".5" d="M316.5 379v-22H343v-69.5h-51V193h-62.5v33H216v61.5h4.5v90H117V468h140v-89h59.5z" fill="#003DD6"/><path opacity=".5" d="M342.5 468v-85.5h-26V377H256v91h1v35h59.5v-35h26zm15.5-85.5h-15.5v106h32V524H434v-40.5h-3.5v-101H372v4h-14v-4z" fill="#003DD6"/><path opacity=".5" d="M520.5 382.5h-90v106h32V524h60v-35.5h-2v-106z" fill="#003DD6"/><path opacity=".5" d="M458 356.5V383h62v85h62.5V286.5h-60V273h-94v39.5H460v44h-2z" fill="#003DD6"/></svg>