<svg width="575" height="544" fill="none" xmlns="http://www.w3.org/2000/svg"><image href="./img/back_sections/c1_02_08_floor.jpg" width="575" height="544"/><path class="flat-h" d="M299.5 75H270V49.5h-95.5v8h-33V1H400v48.5H299.5V75z"/><path class="flat-h" d="M174 61h5.5V49H274v147H174v-38.5h-33V92h33V61zm124-12h102v-6.5h33.5V98h-33.18v8H336v26h-38V49z"/><path class="flat-h" d="M298 132h38v-29h64.267v19.5H433.5v64h-33v4H298V132zm26 85v-26.5h76V215h33.5v61H400v-1.5H292.5V217H324z"/><path class="flat-h" d="M292.5 367.5V274h71v2h37l-7.5 42v49.5H292.5z"/><path class="flat-h" d="M292.5 426v-60H393v92.5h26.5v85h-60V517H294v-91h-1.5z"/><path class="flat-h" d="M268.5 426H294v90.5h10v27H200V517h-.5v-80h2.5v-38h38.5v-29.5h28V426z"/><path class="flat-h" d="M268.5 271.5V369H239v30.5h-37V432h-2v5.5h-45.5V268h30v-49h-10v-5h53v57.5h41z"/></svg>