<svg width="585" height="543" fill="none" xmlns="http://www.w3.org/2000/svg"><image href="./img/back_sections/c2_02_floor.jpg" width="585" height="543"/><path class="flat-h" d="M222 155.5h30.5V117h45v35.5H330V54h-28V2H114.5v112h59v3H208v31.5h14v7z"/><path class="flat-h" d="M222.5 206.5V151h-15v-34H86v51.5h28.5v38h108z"/><path class="flat-h" d="M222.5 294.5v-91h-108v33H79V296h39.5v-1.5h104z"/><path class="flat-h" d="M222.5 380.5V292h-105v4.5H114V329H78.5v59.5H119v-8h103.5z"/><path class="flat-h" d="M253 345h-33v34H117v9h-3v81.5h14V505h85v-35.5h40V345zm61 0h-61v124.5h2V505h60v-35.5h26.5V384H314v-39zm28 39h90v101l.5 5v35.5h-60V490H342V384z"/><path class="flat-h" d="M408.5 385.5V355H459v-45.5h64V490h-1.5v35.5H461V490h-31V385.5h-21.5z"/></svg>