<svg width="586" height="543" fill="none" xmlns="http://www.w3.org/2000/svg"><image href="./img/back_sections/c2_09_floor.jpg" width="585" height="543"/><path class="flat-h" d="M295.5 385v-21h47v-44h2.5v-23.5H167.5v5h-46V385h174z"/><path class="flat-h" d="M295.5 389v-8H293v3H121v88h223v-49h8v-34h-56.5z"/><path class="flat-h" d="M357.5 389H352v33h-10v70h32v33h59.5v-34H432V389h-60.5v4.5h-14V389z"/><path class="flat-h" d="M521 389h-89v98.5h2.5v4.5H462v33h60.5v-37.5H521V389z"/><path class="flat-h" d="M457.5 364v25H521v83h61.5V296H522v-13h-94v39h32v42h-2.5z"/></svg>