<svg width="585" height="543" fill="none" xmlns="http://www.w3.org/2000/svg"><image href="./img/back_sections/c2_03_04_floor.jpg" width="585" height="543"/><path class="flat-h" d="M223 159h33v-42.5h41v37h34v-100h-28.5V2H115v115h56.5v4.5H205v30h18v7.5z"/><path class="flat-h" d="M223 189.5V151h-17.5v-29.5H172V117H86.5v51h28v38.5H217v-17h6z"/><path class="flat-h" d="M223 294v-88.5H115v31H79.5v60H115v2h5V294h103z"/><path class="flat-h" d="M223 380.5V292H119v4.5h-4V329H79v60h35.5v.5h5v-9H223z"/><path class="flat-h" d="M253 345h-31.5v35.5h-105v8.5h-2v81H128v35.5h85.5V470H253V345zm62 39.5v-39h-62v121h2v39h61V470h26v-85.5h-27zm41.5-.5H342v106.5h31v35h60.5v-36H431V384h-60v5h-14.5v-5z"/><path class="flat-h" d="M519 384h-88v104h3v2.5h28v35h60v-35h1.5V468H519v-84z"/><path class="flat-h" d="M457 358v28h62.5v83.5H582V288h-60v-14h-94.5v38.5h31V358H457z"/></svg>