<svg width="585" height="543" fill="none" xmlns="http://www.w3.org/2000/svg"><image href="./img/back_sections/c2_06_floor.jpg" width="585" height="543"/><path class="flat-h" d="M247 236h-25.5v-29.5h-100V112h5.5v-5.5h-5.5v-49h74V48h28v9.5H298v49h-7v5.5h6v153h-47.5v-24.5H247V236z"/><path class="flat-h" d="M224 256v-51H121.5v32H80v60h35.5v3.5h5.5V294h103v-24.5h-6V256h6z"/><path class="flat-h" d="M224 345.5V293H119v4.5h-3v32H80v60h39.5v-9H224v-35z"/><path class="flat-h" d="M253.5 345.5H224v34H118.5v10h-3V470h14v35.5h85V470h41v-89.5h-2v-35z"/><path class="flat-h" d="M315.5 384.5v-39h-61V470h2v35.5H316V470h28v-85.5h-28.5z"/><path class="flat-h" d="M357.5 384.5H343V469h-4v21.5h35V526h60v-38h-1.5V384.5H372v4h-14.5v-4z"/><path class="flat-h" d="M521 384.5h-89v101l2 2v3h28.5V526h60v-38H521V384.5z"/><path class="flat-h" d="M457.5 358.5v27h63V470H583V288.5h-60.5v-14H428V316h31v42.5h-1.5z"/></svg>