<svg width="585" height="543" fill="none" xmlns="http://www.w3.org/2000/svg"><image href="./img/back_sections/c2_07_floor.jpg" width="585" height="543"/><path class="flat-h" d="M248.5 234.5h-27V205H123V82.5h175v181h-47V239h-2.5v-4.5z"/><path class="flat-h" d="M225 255v-52.5H123V236H81.5v60h41v-4H225v-23.5h-6V255h6z"/><path class="flat-h" d="M225 380v-88.5H121v3.5h-4v33H82v59.5h39.5V380H225z"/><path class="flat-h" d="M256.5 344H225v34H120v9h-3v81h13.5v35.5h85V468h41V344z"/><path class="flat-h" d="M256 468V344h60v39h29v85h-28v35.5h-59.5V468H256z"/><path class="flat-h" d="M358 383h-14.5v105.5h31V524h60v-35.5H433V383h-60.5v3.5H358V383z"/><path class="flat-h" d="M522.5 383H433v105.5h30V524h60v-35.5h-.5V383z"/><path class="flat-h" d="M458 357v26h63.5v85H583V287h-60v-14h-94v41h30.5v43H458z"/></svg>