<svg width="51" height="69" fill="none" xmlns="http://www.w3.org/2000/svg"><path fill-rule="evenodd" clip-rule="evenodd" d="M49 2H2v65h47V2zM2 0H0v69h51V0H2zm40 12H8V9h34v3zM8 17h34v-3H8v3zm34 8H8v-2h34v2zM8 31h34v-1H8v1zm34 2H8v-1h34v1zM8 35h34v-1H8v1zm34 2H8v-1h34v1zM8 39h34v-1H8v1zm34 2H8v-1h34v1zM8 43h34v-1H8v1zm34 2H8v-1h34v1zM8 47h34v-1H8v1zm34 2H8v-1h34v1zm-6 4l1.791 1.676 2.452.081.08 2.452L42 59l-1.676 1.791-.081 2.452-2.452.08L36 65l-1.791-1.676-2.452-.081-.08-2.452L30 59l1.676-1.791.081-2.452 2.452-.08L36 53zm1.708 4.175l.113.004.004.113.031.94.642.685.078.083-.078.083-.642.686-.03.94-.005.112-.113.004-.94.031-.685.642-.083.078-.083-.078-.686-.642-.94-.03-.112-.005-.004-.113-.031-.94-.642-.685-.078-.083.078-.083.642-.686.03-.94.005-.112.113-.004.94-.031.685-.642.083-.078.083.078.686.642.94.03z" fill="#003DD6"/></svg>