<svg width="585" height="543" fill="none" xmlns="http://www.w3.org/2000/svg"><image href="./img/back_sections/c2_05_floor.jpg" width="585" height="543"/><path class="flat-h" d="M298.5 52V7h-177v44H116v64.5h93.5v35H222v7.5h28v106.5h53.5V52h-5z"/><path class="flat-h" d="M116 117.5V115h92.5v35H222v6h2v34h-6v13h6v4H116v-38.5H88v-51h28z"/><path class="flat-h" d="M118.5 294.5H224V205H116.5v32h-36v60h38v-2.5z"/><path class="flat-h" d="M116 329.5V297h2.5v-4H224v86H119v10.5H80.5v-60H116z"/><path class="flat-h" d="M254.5 345.5h-33v34H119v10h-3V470h13.5v35.5H215V470h39.5V345.5zm0 124.5V345.5h61v39h27V470h-26v35.5h-60V470h-2z"/><path class="flat-h" d="M357 384.5h-14V470h-3.5v20.5h35V526H434v-38h-2V384.5h-60v5h-15v-5z"/><path class="flat-h" d="M520.5 384.5H432V490h31v36h60v-38h-2.5V384.5z"/><path class="flat-h" d="M458 384.5v-26h2.5V314h-32v-39.5h94v14h60v181H519v-85h-61z"/></svg>