<svg width="100" height="100" viewBox="0 0 100 100" fill="none" xmlns="http://www.w3.org/2000/svg">
<rect width="100" height="100" fill="#003DD6"/>
<path d="M49.3322 38.2107C47.7499 38.2107 46.2032 38.6799 44.8876 39.5589C43.572 40.438 42.5466 41.6874 41.9411 43.1492C41.3356 44.611 41.1772 46.2196 41.4859 47.7714C41.7946 49.3233 42.5565 50.7487 43.6753 51.8676C44.7941 52.9864 46.2196 53.7483 47.7715 54.057C49.3233 54.3657 50.9318 54.2072 52.3936 53.6017C53.8555 52.9962 55.1049 51.9709 55.9839 50.6553C56.863 49.3397 57.3322 47.793 57.3322 46.2107C57.3301 44.0896 56.4865 42.056 54.9867 40.5562C53.4869 39.0563 51.4533 38.2128 49.3322 38.2107ZM49.3322 51.544C48.2773 51.544 47.2462 51.2312 46.3691 50.6452C45.4921 50.0592 44.8085 49.2262 44.4048 48.2517C44.0011 47.2771 43.8955 46.2048 44.1013 45.1702C44.3071 44.1356 44.8151 43.1853 45.5609 42.4395C46.3068 41.6936 47.2571 41.1856 48.2917 40.9798C49.3263 40.7741 50.3986 40.8797 51.3732 41.2833C52.3477 41.687 53.1807 42.3706 53.7667 43.2477C54.3527 44.1247 54.6655 45.1559 54.6655 46.2107C54.6655 47.6252 54.1036 48.9817 53.1034 49.9819C52.1032 50.9821 50.7467 51.544 49.3322 51.544Z" fill="white"/>
<path d="M18.6657 36.6666C18.6657 38.2489 19.1349 39.7956 20.014 41.1112C20.893 42.4268 22.1425 43.4522 23.6043 44.0577C25.0661 44.6632 26.6746 44.8216 28.2265 44.5129C29.7783 44.2042 31.2038 43.4423 32.3226 42.3235C33.4414 41.2047 34.2033 39.7792 34.512 38.2274C34.8207 36.6755 34.6623 35.067 34.0568 33.6052C33.4513 32.1434 32.4259 30.8939 31.1103 30.0149C29.7947 29.1358 28.248 28.6666 26.6657 28.6666C24.5446 28.6687 22.511 29.5123 21.0112 31.0121C19.5114 32.5119 18.6678 34.5455 18.6657 36.6666ZM31.9991 36.6666C31.9991 37.7215 31.6863 38.7526 31.1002 39.6297C30.5142 40.5067 29.6813 41.1903 28.7067 41.594C27.7322 41.9977 26.6598 42.1033 25.6252 41.8975C24.5907 41.6917 23.6404 41.1838 22.8945 40.4379C22.1486 39.692 21.6407 38.7417 21.4349 37.7071C21.2291 36.6725 21.3347 35.6002 21.7384 34.6257C22.142 33.6511 22.8256 32.8182 23.7027 32.2321C24.5798 31.6461 25.6109 31.3333 26.6657 31.3333C28.0802 31.3333 29.4368 31.8952 30.437 32.8954C31.4372 33.8956 31.9991 35.2521 31.9991 36.6666Z" fill="white"/>
<path d="M65.3318 36.6666C65.3318 38.2489 65.801 39.7956 66.6801 41.1112C67.5591 42.4268 68.8086 43.4522 70.2704 44.0577C71.7322 44.6632 73.3407 44.8216 74.8926 44.5129C76.4444 44.2042 77.8699 43.4423 78.9887 42.3235C80.1075 41.2047 80.8694 39.7792 81.1781 38.2274C81.4868 36.6755 81.3284 35.067 80.7229 33.6052C80.1174 32.1434 79.092 30.8939 77.7764 30.0149C76.4608 29.1358 74.9141 28.6666 73.3318 28.6666C71.2108 28.6687 69.1772 29.5123 67.6773 31.0121C66.1775 32.5119 65.334 34.5455 65.3318 36.6666ZM73.3318 31.3333C74.3867 31.3333 75.4178 31.6461 76.2949 32.2321C77.1719 32.8182 77.8555 33.6511 78.2592 34.6257C78.6629 35.6002 78.7685 36.6725 78.5627 37.7071C78.3569 38.7417 77.849 39.692 77.1031 40.4379C76.3572 41.1838 75.4069 41.6917 74.3723 41.8975C73.3378 42.1033 72.2654 41.9977 71.2909 41.594C70.3163 41.1903 69.4834 40.5067 68.8973 39.6297C68.3113 38.7526 67.9985 37.7215 67.9985 36.6666C67.9985 35.2521 68.5604 33.8956 69.5606 32.8954C70.5608 31.8952 71.9173 31.3333 73.3318 31.3333Z" fill="white"/>
<path d="M13.332 52.6667V70.0001C13.332 70.3537 13.4725 70.6928 13.7225 70.9429C13.9726 71.1929 14.3117 71.3334 14.6653 71.3334H18.5667L17.332 88.5721C17.319 88.755 17.3438 88.9386 17.405 89.1114C17.4661 89.2843 17.5623 89.4427 17.6874 89.5767C17.8125 89.7107 17.964 89.8175 18.1322 89.8903C18.3005 89.9632 18.482 90.0005 18.6653 90.0001H23.9987C24.3352 90.0011 24.6597 89.8748 24.907 89.6465C25.1543 89.4183 25.3061 89.1049 25.332 88.7694L26.5667 72.6667H26.764L27.9987 88.7694C28.0246 89.1049 28.1764 89.4183 28.4237 89.6465C28.671 89.8748 28.9955 90.0011 29.332 90.0001H34.6653C34.8469 90.0004 35.0266 89.9636 35.1934 89.8919C35.3603 89.8203 35.5107 89.7154 35.6356 89.5835C35.7604 89.4517 35.857 89.2958 35.9194 89.1253C35.9819 88.9548 36.0089 88.7734 35.9987 88.5921L34.6653 64.6667V59.5654L41.2987 65.2507L39.9987 88.5921C39.9885 88.7734 40.0155 88.9548 40.0779 89.1253C40.1404 89.2958 40.237 89.4517 40.3618 89.5835C40.4866 89.7154 40.6371 89.8203 40.8039 89.8919C40.9708 89.9636 41.1505 90.0004 41.332 90.0001H46.6654C46.9991 90.0014 47.3213 89.8775 47.5682 89.6529C47.815 89.4282 47.9687 89.1192 47.9987 88.7867L49.216 75.3334H49.448L50.6654 88.7867C50.6954 89.1192 50.849 89.4282 51.0959 89.6529C51.3428 89.8775 51.6649 90.0014 51.9987 90.0001H57.332C57.5136 90.0004 57.6933 89.9636 57.8601 89.8919C58.027 89.8203 58.1774 89.7154 58.3022 89.5835C58.4271 89.4517 58.5237 89.2958 58.5861 89.1253C58.6486 88.9548 58.6755 88.7734 58.6654 88.5921L57.372 65.3054L64.676 59.8281L61.3587 76.4001C61.3192 76.5938 61.3232 76.7939 61.3705 76.9859C61.4179 77.1779 61.5073 77.357 61.6324 77.5101C61.7575 77.6633 61.915 77.7867 62.0937 77.8714C62.2724 77.9562 62.4676 78.0001 62.6654 78.0001H64.5894L63.9987 88.5921C63.9885 88.7734 64.0155 88.9548 64.0779 89.1253C64.1404 89.2958 64.237 89.4517 64.3618 89.5835C64.4867 89.7154 64.6371 89.8203 64.8039 89.8919C64.9708 89.9636 65.1505 90.0004 65.332 90.0001H70.6654C71.0019 90.0011 71.3264 89.8748 71.5737 89.6465C71.821 89.4183 71.9728 89.1049 71.9987 88.7694L72.8227 78.0001H73.8414L74.6654 88.7694C74.6913 89.1049 74.8431 89.4183 75.0904 89.6465C75.3377 89.8748 75.6622 90.0011 75.9987 90.0001H81.332C81.5154 90.0005 81.6969 89.9632 81.8651 89.8903C82.0334 89.8175 82.1848 89.7107 82.31 89.5767C82.4351 89.4427 82.5312 89.2843 82.5924 89.1114C82.6536 88.9386 82.6784 88.755 82.6654 88.5721L81.908 78.0001H85.332C85.5282 78 85.722 77.9566 85.8995 77.8731C86.077 77.7895 86.2339 77.6678 86.3589 77.5167C86.484 77.3655 86.5741 77.1886 86.6229 76.9986C86.6718 76.8086 86.6781 76.6101 86.6414 76.4174L81.928 51.6681C81.6956 50.4489 81.0453 49.3489 80.089 48.5577C79.1328 47.7664 77.9305 47.3335 76.6894 47.3334H68.3774C66.9851 47.3303 65.6273 47.7666 64.4974 48.5801C64.4569 48.6084 64.4182 48.6391 64.3814 48.6721L55.4867 56.6721H44.5107L35.616 48.6721C35.5792 48.6391 35.5405 48.6084 35.5 48.5801C34.3701 47.7666 33.0123 47.3303 31.62 47.3334H18.6653C17.2508 47.3334 15.8943 47.8953 14.8941 48.8955C13.8939 49.8957 13.332 51.2522 13.332 52.6667ZM33.892 50.7081L43.1067 58.9921C43.3517 59.2121 43.6694 59.3337 43.9987 59.3334H55.9987C56.328 59.3337 56.6457 59.2121 56.8907 58.9921L66.1054 50.7081C66.7713 50.2469 67.562 49.9999 68.372 50.0001H76.684C77.3044 50.0002 77.9053 50.2167 78.3833 50.6121C78.8613 51.0076 79.1864 51.5574 79.3027 52.1667L83.7214 75.3334H80.4747C80.2914 75.3329 80.1099 75.3703 79.9416 75.4431C79.7733 75.516 79.6219 75.6228 79.4968 75.7568C79.3717 75.8908 79.2755 76.0492 79.2144 76.222C79.1532 76.3949 79.1284 76.5785 79.1414 76.7614L79.9 87.3334H77.2334L76.4054 76.5641C76.3795 76.2285 76.2276 75.9152 75.9803 75.687C75.733 75.4587 75.4086 75.3324 75.072 75.3334H71.588C71.2515 75.3324 70.927 75.4587 70.6797 75.687C70.4324 75.9152 70.2806 76.2285 70.2547 76.5641L69.4307 87.3334H66.7414L67.3294 76.7414C67.3395 76.5604 67.3126 76.3791 67.2504 76.2088C67.1881 76.0385 67.0917 75.8827 66.9672 75.7509C66.8426 75.6191 66.6925 75.5141 66.526 75.4423C66.3595 75.3706 66.18 75.3335 65.9987 75.3334H64.292L67.972 56.9334C68.0262 56.6684 67.9984 56.3931 67.8925 56.1442C67.7865 55.8953 67.6073 55.6845 67.3788 55.5398C67.1502 55.3952 66.883 55.3235 66.6127 55.3342C66.3424 55.345 66.0817 55.4377 65.8654 55.6001L55.1987 63.6001C55.0226 63.7316 54.8818 63.9046 54.7887 64.1038C54.6957 64.3029 54.6533 64.5219 54.6654 64.7414L55.9227 87.3334H53.216L51.9987 73.8801C51.9687 73.5476 51.815 73.2386 51.5682 73.0139C51.3213 72.7893 50.9991 72.6654 50.6654 72.6667H47.9987C47.6649 72.6654 47.3428 72.7893 47.0959 73.0139C46.849 73.2386 46.6954 73.5476 46.6654 73.8801L45.448 87.3334H42.7414L43.9987 64.7414C44.0101 64.5368 43.9741 64.3323 43.8936 64.1439C43.8132 63.9554 43.6903 63.788 43.5347 63.6547L34.2013 55.6547C34.0078 55.4883 33.7705 55.3809 33.5178 55.3454C33.265 55.3098 33.0073 55.3475 32.7754 55.4541C32.5434 55.5607 32.3469 55.7316 32.2092 55.9465C32.0716 56.1615 31.9985 56.4115 31.9987 56.6667V64.7414L33.256 87.3334H30.5667L29.332 71.2307C29.3061 70.8952 29.1543 70.5819 28.907 70.3536C28.6597 70.1254 28.3352 69.9991 27.9987 70.0001H25.332C24.9955 69.9991 24.671 70.1254 24.4237 70.3536C24.1764 70.5819 24.0246 70.8952 23.9987 71.2307L22.764 87.3334H20.0973L21.332 70.0947C21.332 70.0627 21.32 70.0321 21.32 70.0001H21.332V56.6667H18.6653V68.6667H15.9987V52.6667C15.9987 51.9595 16.2796 51.2812 16.7797 50.7811C17.2798 50.281 17.9581 50.0001 18.6653 50.0001H31.62C32.4318 49.9988 33.2246 50.2459 33.892 50.7081Z" fill="white"/>
<path d="M53.065 10H45.5983C41.4585 10.008 37.4484 11.4455 34.2463 14.0694C31.0442 16.6932 28.8465 20.3425 28.025 24.4C27.9714 24.6682 28.0016 24.9464 28.1115 25.1968C28.2213 25.4473 28.4056 25.6579 28.6392 25.8001C28.8728 25.9423 29.1445 26.0092 29.4174 25.9918C29.6903 25.9744 29.9513 25.8734 30.165 25.7027C31.8166 24.369 33.8754 23.6416 35.9983 23.6416C38.1212 23.6416 40.18 24.369 41.8316 25.7027C42.0681 25.892 42.362 25.9952 42.665 25.9952C42.9679 25.9952 43.2618 25.892 43.4983 25.7027C44.7983 24.6653 46.3519 23.9942 47.9983 23.7587V35.3333H50.665V23.7587C52.3119 23.9957 53.8655 24.6687 55.165 25.708C55.4014 25.8973 55.6954 26.0005 55.9983 26.0005C56.3012 26.0005 56.5951 25.8973 56.8316 25.708C58.4833 24.3743 60.5421 23.6469 62.665 23.6469C64.7879 23.6469 66.8466 24.3743 68.4983 25.708C68.7121 25.8763 68.9723 25.9751 69.2439 25.9912C69.5155 26.0073 69.7855 25.94 70.0178 25.7982C70.25 25.6564 70.4333 25.4469 70.543 25.198C70.6527 24.949 70.6837 24.6724 70.6316 24.4053C69.8114 20.348 67.6152 16.6983 64.4143 14.0735C61.2135 11.4487 57.2044 10.0098 53.065 10ZM55.9983 23.0147C54.0289 21.686 51.7074 20.9761 49.3316 20.9761C46.9559 20.9761 44.6344 21.686 42.665 23.0147C41.0603 21.9325 39.2162 21.2577 37.2921 21.0486C35.368 20.8395 33.4219 21.1025 31.6223 21.8147C32.8152 19.0998 34.7712 16.79 37.2523 15.166C39.7334 13.542 42.6329 12.6737 45.5983 12.6667H53.065C56.0294 12.6739 58.928 13.5418 61.4086 15.165C63.8892 16.7883 65.8449 19.097 67.0383 21.8107C65.2387 21.0998 63.293 20.838 61.3694 21.0478C59.4459 21.2575 57.6024 21.9326 55.9983 23.0147Z" fill="white"/>
</svg>
