<svg width="100" height="100" viewBox="0 0 100 100" fill="none" xmlns="http://www.w3.org/2000/svg">
<rect width="100" height="100" fill="#003DD6"/>
<path d="M30 55.3333H15.3333C13.9193 55.3317 12.5637 54.7693 11.5639 53.7695C10.564 52.7696 10.0016 51.414 10 50V15.3333C10.0016 13.9193 10.564 12.5637 11.5639 11.5639C12.5637 10.564 13.9193 10.0016 15.3333 10H50C51.414 10.0016 52.7696 10.564 53.7695 11.5639C54.7693 12.5637 55.3317 13.9193 55.3333 15.3333V38H52.6667V15.3333C52.6658 14.6263 52.3846 13.9486 51.8847 13.4486C51.3848 12.9487 50.707 12.6675 50 12.6667H15.3333C14.6263 12.6675 13.9486 12.9487 13.4486 13.4486C12.9487 13.9486 12.6675 14.6263 12.6667 15.3333V50C12.6675 50.707 12.9487 51.3848 13.4486 51.8847C13.9486 52.3846 14.6263 52.6658 15.3333 52.6667H30V55.3333Z" fill="white"/>
<path d="M27.3341 50H19.3341C18.9804 50 18.6413 49.8596 18.3913 49.6095C18.1412 49.3595 18.0007 49.0203 18.0007 48.6667V16.6667C18.0007 16.3131 18.1412 15.9739 18.3913 15.7239C18.6413 15.4739 18.9804 15.3334 19.3341 15.3334H35.3341C38.5167 15.3334 41.5689 16.5977 43.8193 18.8481C46.0698 21.0985 47.3341 24.1508 47.3341 27.3334C47.3341 30.516 46.0698 33.5682 43.8193 35.8187C41.5689 38.0691 38.5167 39.3334 35.3341 39.3334H28.6674V48.6667C28.6674 49.0203 28.5269 49.3595 28.2769 49.6095C28.0268 49.8596 27.6877 50 27.3341 50ZM20.6674 47.3334H26.0007V38C26.0007 37.6464 26.1412 37.3073 26.3913 37.0572C26.6413 36.8072 26.9804 36.6667 27.3341 36.6667H35.3341C37.8094 36.6667 40.1834 35.6834 41.9337 33.933C43.6841 32.1827 44.6674 29.8087 44.6674 27.3334C44.6674 24.858 43.6841 22.4841 41.9337 20.7337C40.1834 18.9834 37.8094 18 35.3341 18H20.6674V47.3334ZM35.3341 31.3334H27.3341C26.9804 31.3334 26.6413 31.1929 26.3913 30.9429C26.1412 30.6928 26.0007 30.3537 26.0007 30V24.6667C26.0007 24.3131 26.1412 23.9739 26.3913 23.7239C26.6413 23.4738 26.9804 23.3334 27.3341 23.3334H35.3341C36.3949 23.3334 37.4123 23.7548 38.1625 24.5049C38.9126 25.2551 39.3341 26.2725 39.3341 27.3334C39.3341 28.3942 38.9126 29.4117 38.1625 30.1618C37.4123 30.9119 36.3949 31.3334 35.3341 31.3334ZM28.6674 28.6667H35.3341C35.6877 28.6667 36.0268 28.5262 36.2769 28.2762C36.5269 28.0261 36.6674 27.687 36.6674 27.3334C36.6674 26.9798 36.5269 26.6406 36.2769 26.3906C36.0268 26.1405 35.6877 26 35.3341 26H28.6674V28.6667Z" fill="white"/>
<path d="M88.2767 62.3905C87.2195 61.3281 85.7945 60.7125 84.2963 60.671L78.8437 44.3132C78.4904 43.2508 77.8114 42.3267 76.9031 41.6721C75.9948 41.0175 74.9034 40.6657 73.7838 40.6667H42.2172C41.0976 40.6657 40.0061 41.0175 39.0979 41.6721C38.1896 42.3267 37.5106 43.2508 37.1573 44.3132L31.7047 60.671C30.1759 60.7176 28.7254 61.3577 27.6606 62.4555C26.5958 63.5534 26.0003 65.0228 26.0005 66.5522V76.6667C26.0021 78.0807 26.5645 79.4363 27.5643 80.4362C28.5642 81.436 29.9198 81.9984 31.3338 82H40.6672V87.3334H32.6672V84.6667H30.0005V87.3334C30.0013 88.0403 30.2825 88.7181 30.7825 89.218C31.2824 89.718 31.9602 89.9992 32.6672 90H40.6672C41.3741 89.9992 42.0519 89.718 42.5518 89.218C43.0518 88.7181 43.333 88.0403 43.3338 87.3334V82H72.6672V87.3334C72.668 88.0403 72.9492 88.7181 73.4491 89.218C73.949 89.718 74.6268 89.9992 75.3338 90H83.3338C84.0408 89.9992 84.7186 89.718 85.2185 89.218C85.7184 88.7181 85.9997 88.0403 86.0005 87.3334V81.8312C87.1446 81.5341 88.1579 80.866 88.8817 79.9315C89.6055 78.9969 89.999 77.8487 90.0005 76.6667V66.5522C90.0026 65.779 89.8513 65.013 89.5554 64.2987C89.2595 63.5843 88.8249 62.9358 88.2767 62.3905ZM42.2172 43.3334H73.7838C74.3437 43.3329 74.8894 43.5089 75.3436 43.8362C75.7978 44.1635 76.1373 44.6256 76.314 45.1569L76.595 46H39.406L39.687 45.1569C39.8637 44.6256 40.2032 44.1635 40.6574 43.8362C41.1116 43.5089 41.6573 43.3329 42.2172 43.3334ZM38.5172 48.6667H77.4838L81.4838 60.6667H34.5172L38.5172 48.6667ZM83.3338 87.3334H75.3338V82H83.3338L83.3352 87.3334H83.3338ZM87.3338 76.6667C87.333 77.3737 87.0518 78.0515 86.5518 78.5514C86.0519 79.0513 85.3741 79.3325 84.6672 79.3334H31.3338C30.6268 79.3325 29.949 79.0513 29.4491 78.5514C28.9492 78.0515 28.668 77.3737 28.6672 76.6667V66.5522C28.6672 65.6985 29.0063 64.8798 29.61 64.2762C30.2136 63.6725 31.0323 63.3334 31.886 63.3334H84.115C84.9687 63.3334 85.7874 63.6725 86.391 64.2762C86.9946 64.8798 87.3338 65.6985 87.3338 66.5522V76.6667Z" fill="white"/>
<path d="M36.6654 66C35.6105 66 34.5794 66.3128 33.7023 66.8988C32.8253 67.4849 32.1417 68.3178 31.738 69.2924C31.3343 70.2669 31.2287 71.3392 31.4345 72.3738C31.6403 73.4084 32.1483 74.3587 32.8941 75.1046C33.64 75.8504 34.5903 76.3584 35.6249 76.5642C36.6595 76.77 37.7318 76.6644 38.7063 76.2607C39.6809 75.857 40.5138 75.1734 41.0999 74.2964C41.6859 73.4193 41.9987 72.3882 41.9987 71.3333C41.9971 69.9193 41.4347 68.5637 40.4348 67.5639C39.435 66.564 38.0794 66.0016 36.6654 66ZM36.6654 74C36.138 74 35.6224 73.8436 35.1838 73.5506C34.7453 73.2576 34.4035 72.8411 34.2017 72.3538C33.9999 71.8666 33.947 71.3304 34.0499 70.8131C34.1528 70.2958 34.4068 69.8207 34.7797 69.4477C35.1527 69.0748 35.6278 68.8208 36.1451 68.7179C36.6624 68.615 37.1986 68.6678 37.6859 68.8697C38.1731 69.0715 38.5896 69.4133 38.8826 69.8518C39.1756 70.2903 39.332 70.8059 39.332 71.3333C39.3312 72.0403 39.05 72.7181 38.5501 73.218C38.0501 73.7179 37.3724 73.9992 36.6654 74Z" fill="white"/>
<path d="M79.3328 66C78.278 66 77.2469 66.3128 76.3698 66.8988C75.4927 67.4849 74.8092 68.3178 74.4055 69.2924C74.0018 70.2669 73.8962 71.3392 74.102 72.3738C74.3078 73.4084 74.8157 74.3587 75.5616 75.1046C76.3075 75.8504 77.2578 76.3584 78.2924 76.5642C79.3269 76.77 80.3993 76.6644 81.3738 76.2607C82.3484 75.857 83.1813 75.1734 83.7674 74.2964C84.3534 73.4193 84.6662 72.3882 84.6662 71.3333C84.6646 69.9193 84.1022 68.5637 83.1023 67.5639C82.1025 66.564 80.7468 66.0016 79.3328 66ZM79.3328 74C78.8054 74 78.2899 73.8436 77.8513 73.5506C77.4128 73.2576 77.071 72.8411 76.8692 72.3538C76.6673 71.8666 76.6145 71.3304 76.7174 70.8131C76.8203 70.2958 77.0743 69.8207 77.4472 69.4477C77.8202 69.0748 78.2953 68.8208 78.8126 68.7179C79.3299 68.615 79.8661 68.6678 80.3533 68.8697C80.8406 69.0715 81.2571 69.4133 81.5501 69.8518C81.8431 70.2903 81.9995 70.8059 81.9995 71.3333C81.9987 72.0403 81.7175 72.7181 81.2175 73.218C80.7176 73.7179 80.0398 73.9992 79.3328 74Z" fill="white"/>
<path d="M44.6665 67.3333H71.3332V70H44.6665V67.3333Z" fill="white"/>
<path d="M44.6665 72.6667H71.3332V75.3334H44.6665V72.6667Z" fill="white"/>
</svg>
