<svg width="71" height="65" viewBox="0 0 71 65" fill="none" xmlns="http://www.w3.org/2000/svg">
<path d="M46.985 6.55001L49.3705 8.87521L48.8073 12.1584C48.7195 12.6695 48.9298 13.1863 49.3495 13.4913C49.7692 13.7961 50.3256 13.8363 50.7846 13.595L53.7331 12.0449L56.6816 13.595C56.8809 13.6998 57.0987 13.7514 57.3155 13.7514C57.598 13.7514 57.8792 13.6636 58.1166 13.4911C58.5362 13.1863 58.7463 12.6695 58.6588 12.1583L58.0958 8.87507L60.4812 6.54987C60.8527 6.1878 60.9862 5.64626 60.826 5.15296C60.6656 4.65966 60.2392 4.30017 59.7259 4.2255L56.4293 3.74664L54.9551 0.759576C54.7254 0.294346 54.2518 0 53.7331 0C53.2143 0 52.7406 0.294482 52.511 0.759712L51.0369 3.74664L47.7405 4.22563C47.2271 4.30017 46.8008 4.65979 46.6404 5.15309C46.48 5.64626 46.6137 6.18794 46.985 6.55001ZM52.1377 6.3407C52.5817 6.27624 52.9653 5.99743 53.1638 5.59516L53.7331 4.44176L54.3024 5.5953C54.5009 5.99743 54.8845 6.27624 55.3285 6.3407L56.6014 6.52562L55.6802 7.42351C55.3592 7.73652 55.2125 8.18758 55.2883 8.62978L55.5058 9.89765L54.3673 9.29901C54.1687 9.19463 53.951 9.14257 53.7332 9.14257C53.5154 9.14257 53.2977 9.19476 53.0991 9.29901L51.9606 9.89765L52.1782 8.62978C52.254 8.18772 52.1073 7.73666 51.7863 7.42351L50.8651 6.52562L52.1377 6.3407Z" fill="white"/>
<path d="M62.8441 54.508H58.3597V49.3403H67.5333C68.3962 49.3403 69.1865 48.8685 69.596 48.109C70.0055 47.3494 69.9652 46.4298 69.491 45.709L65.5931 39.7836C65.7302 39.637 65.8498 39.4714 65.9475 39.2892C66.3565 38.5271 66.3133 37.6059 65.835 36.8854L62.2803 31.5301C62.4013 31.3941 62.5076 31.2427 62.5961 31.0777C63.0047 30.3148 62.9609 29.3933 62.4813 28.6729L58.1314 22.1353C57.8788 21.7556 57.4529 21.5275 56.9969 21.5275C56.541 21.5275 56.115 21.7556 55.8625 22.1353L51.5124 28.673C51.033 29.3936 50.9893 30.3151 51.3981 31.0778C51.4864 31.2427 51.5927 31.3939 51.7136 31.5299L48.1588 36.8855C47.6805 37.6061 47.6374 38.5272 48.0464 39.2894C48.1441 39.4714 48.2636 39.637 48.4007 39.7835L44.5028 45.7088C44.0287 46.4297 43.9884 47.3494 44.3977 48.1088C44.8071 48.8683 45.5977 49.3402 46.4606 49.3402H55.6341V54.508H37.491V31.4167L41.5363 27.3714C42.0684 26.8392 42.0684 25.9764 41.5363 25.4442C41.004 24.9121 40.1414 24.9121 39.609 25.4442L37.491 27.5623V21.5911C37.491 20.8385 36.8807 20.2284 36.1282 20.2284C35.3756 20.2284 34.7655 20.8385 34.7655 21.5911V39.3872L31.386 34.2499C31.6748 34.0221 31.9192 33.7344 32.0997 33.3982C32.5748 32.5125 32.5247 31.4421 31.9688 30.6045L26.7946 22.8093C27.0578 22.5893 27.2812 22.318 27.4491 22.0047C27.924 21.1181 27.8731 20.0472 27.3159 19.2099L21.2803 10.1388C21.0276 9.75912 20.6018 9.53101 20.1457 9.53101C19.6896 9.53101 19.2637 9.75912 19.0111 10.1388L12.9756 19.2099C12.4184 20.0473 12.3675 21.1181 12.8424 22.0047C13.0102 22.318 13.2337 22.5895 13.4969 22.8094L8.32265 30.6047C7.7668 31.4422 7.71665 32.5126 8.19183 33.3984C8.37225 33.7345 8.61659 34.0223 8.90548 34.2501L3.25104 42.8455C2.69996 43.6833 2.65322 44.7521 3.12908 45.6348C3.60494 46.5176 4.52354 47.0658 5.52636 47.0658H15.9356V54.508H8.44202C4.20494 54.508 0.75769 57.9552 0.75769 62.1925V63.6373C0.75769 64.39 1.36778 65.0001 2.1204 65.0001H69.1658C69.9183 65.0001 70.5285 64.39 70.5285 63.6373V62.1925C70.5285 57.9552 67.0813 54.508 62.8441 54.508ZM51.5792 39.911C51.9928 39.2823 51.8185 38.4373 51.1898 38.0235C51.0644 37.9411 50.9304 37.8821 50.7931 37.8453L54.8687 31.7053C55.2848 31.0782 55.114 30.2325 54.4868 29.8163C54.3756 29.7425 54.2575 29.6873 54.1362 29.6497L56.9971 25.35L59.8578 29.6495C59.857 29.6498 59.8563 29.6501 59.8555 29.6502C59.735 29.6878 59.6177 29.7429 59.5072 29.8162C58.8801 30.2324 58.7093 31.0781 59.1254 31.7052L63.1704 37.7992H59.6703C58.9178 37.7992 58.3076 38.4093 58.3076 39.162C58.3076 39.9146 58.9178 40.5247 59.6703 40.5247H62.8186L66.8247 46.6146H47.1692L51.5792 39.911ZM34.7655 47.0658V54.508H24.3559V47.0658H34.7655ZM12.1873 34.2204C12.6009 33.5916 12.4265 32.7466 11.7977 32.333C11.4972 32.1353 11.1473 32.072 10.8186 32.1286C10.7461 32.116 10.6717 32.1091 10.5959 32.1084L16.3483 23.4421H18.6418C19.3944 23.4421 20.0045 22.832 20.0045 22.0794C20.0045 21.3268 19.3944 20.7167 18.6418 20.7167L15.2473 20.7163L20.1459 13.3538L25.087 20.7806C24.7074 20.6604 24.2786 20.7067 23.9212 20.9441C23.2941 21.3603 23.1233 22.206 23.5395 22.8331L29.6958 32.109H29.2596C29.2479 32.1088 29.2362 32.1088 29.2243 32.109H20.5633C19.8107 32.109 19.2006 32.7191 19.2006 33.4717C19.2006 34.2243 19.8107 34.8344 20.5633 34.8344H28.5081L34.761 44.3405L5.53018 44.3401L12.1873 34.2204ZM18.661 47.0658H21.6305V54.508H18.661V47.0658ZM67.8031 62.2745H3.48311V62.1923C3.48311 59.458 5.70774 57.2334 8.44216 57.2334H62.8442C65.5785 57.2334 67.8033 59.458 67.8033 62.1923V62.2745H67.8031Z" fill="white"/>
</svg>
