<svg width="71" height="56" viewBox="0 0 71 56" fill="none" xmlns="http://www.w3.org/2000/svg">
<path d="M62.8441 45.508H58.3597V40.3403H67.5333C68.3962 40.3403 69.1865 39.8685 69.596 39.109C70.0055 38.3494 69.9652 37.4298 69.491 36.709L65.5931 30.7836C65.7302 30.637 65.8498 30.4714 65.9475 30.2892C66.3565 29.5271 66.3133 28.6059 65.835 27.8854L62.2803 22.5301C62.4013 22.3941 62.5076 22.2427 62.5961 22.0777C63.0047 21.3148 62.9609 20.3933 62.4813 19.6729L58.1314 13.1353C57.8788 12.7556 57.4529 12.5275 56.9969 12.5275C56.541 12.5275 56.115 12.7556 55.8625 13.1353L51.5124 19.673C51.033 20.3936 50.9893 21.3151 51.3981 22.0778C51.4864 22.2427 51.5927 22.3939 51.7136 22.5299L48.1588 27.8855C47.6805 28.6061 47.6374 29.5272 48.0464 30.2894C48.1441 30.4714 48.2636 30.637 48.4007 30.7835L44.5028 36.7088C44.0287 37.4297 43.9884 38.3494 44.3977 39.1088C44.8071 39.8683 45.5977 40.3402 46.4606 40.3402H55.6341V45.508H37.491V22.4167L41.5363 18.3714C42.0684 17.8392 42.0684 16.9764 41.5363 16.4442C41.004 15.9121 40.1414 15.9121 39.609 16.4442L37.491 18.5623V12.5911C37.491 11.8385 36.8807 11.2284 36.1282 11.2284C35.3756 11.2284 34.7655 11.8385 34.7655 12.5911V30.3872L31.386 25.2499C31.6748 25.0221 31.9192 24.7344 32.0997 24.3982C32.5748 23.5125 32.5247 22.4421 31.9688 21.6045L26.7946 13.8093C27.0578 13.5893 27.2812 13.318 27.4491 13.0047C27.924 12.1181 27.8731 11.0472 27.3159 10.2099L21.2803 1.13878C21.0276 0.759124 20.6018 0.531006 20.1457 0.531006C19.6896 0.531006 19.2637 0.759124 19.0111 1.13878L12.9756 10.2099C12.4184 11.0473 12.3675 12.1181 12.8424 13.0047C13.0102 13.318 13.2337 13.5895 13.4969 13.8094L8.32265 21.6047C7.7668 22.4422 7.71665 23.5126 8.19183 24.3984C8.37225 24.7345 8.61659 25.0223 8.90548 25.2501L3.25104 33.8455C2.69996 34.6833 2.65322 35.7521 3.12908 36.6348C3.60494 37.5176 4.52354 38.0658 5.52636 38.0658H15.9356V45.508H8.44202C4.20494 45.508 0.75769 48.9552 0.75769 53.1925V54.6373C0.75769 55.39 1.36778 56.0001 2.1204 56.0001H69.1658C69.9183 56.0001 70.5285 55.39 70.5285 54.6373V53.1925C70.5285 48.9552 67.0813 45.508 62.8441 45.508ZM51.5792 30.911C51.9928 30.2823 51.8185 29.4373 51.1898 29.0235C51.0644 28.9411 50.9304 28.8821 50.7931 28.8453L54.8687 22.7053C55.2848 22.0782 55.114 21.2325 54.4868 20.8163C54.3756 20.7425 54.2575 20.6873 54.1362 20.6497L56.9971 16.35L59.8578 20.6495C59.857 20.6498 59.8563 20.6501 59.8555 20.6502C59.735 20.6878 59.6177 20.7429 59.5072 20.8162C58.8801 21.2324 58.7093 22.0781 59.1254 22.7052L63.1704 28.7992H59.6703C58.9178 28.7992 58.3076 29.4093 58.3076 30.162C58.3076 30.9146 58.9178 31.5247 59.6703 31.5247H62.8186L66.8247 37.6146H47.1692L51.5792 30.911ZM34.7655 38.0658V45.508H24.3559V38.0658H34.7655ZM12.1873 25.2204C12.6009 24.5916 12.4265 23.7466 11.7977 23.333C11.4972 23.1353 11.1473 23.072 10.8186 23.1286C10.7461 23.116 10.6717 23.1091 10.5959 23.1084L16.3483 14.4421H18.6418C19.3944 14.4421 20.0045 13.832 20.0045 13.0794C20.0045 12.3268 19.3944 11.7167 18.6418 11.7167L15.2473 11.7163L20.1459 4.35382L25.087 11.7806C24.7074 11.6604 24.2786 11.7067 23.9212 11.9441C23.2941 12.3603 23.1233 13.206 23.5395 13.8331L29.6958 23.109H29.2596C29.2479 23.1088 29.2362 23.1088 29.2243 23.109H20.5633C19.8107 23.109 19.2006 23.7191 19.2006 24.4717C19.2006 25.2243 19.8107 25.8344 20.5633 25.8344H28.5081L34.761 35.3405L5.53018 35.3401L12.1873 25.2204ZM18.661 38.0658H21.6305V45.508H18.661V38.0658ZM67.8031 53.2745H3.48311V53.1923C3.48311 50.458 5.70774 48.2334 8.44216 48.2334H62.8442C65.5785 48.2334 67.8033 50.458 67.8033 53.1923V53.2745H67.8031Z" fill="white"/>
</svg>
