<svg width="100" height="100" fill="none" xmlns="http://www.w3.org/2000/svg"><path fill="#003DD6" d="M0 0h100v100H0z"/><path d="M30 55.333H15.333A5.34 5.34 0 0110 50V15.333A5.339 5.339 0 0115.333 10H50a5.34 5.34 0 015.333 5.333V38h-2.666V15.333A2.67 2.67 0 0050 12.667H15.333a2.67 2.67 0 00-2.666 2.666V50a2.67 2.67 0 002.666 2.667H30v2.666z" fill="#fff"/><path d="M27.334 50h-8a1.333 1.333 0 01-1.333-1.333v-32a1.333 1.333 0 011.333-1.334h16a12 12 0 110 24h-6.666v9.334A1.333 1.333 0 0127.334 50zm-6.666-2.667H26V38a1.334 1.334 0 011.333-1.333h8a9.334 9.334 0 000-18.667H20.668v29.333zm14.666-16h-8A1.333 1.333 0 0126.001 30v-5.333a1.333 1.333 0 011.333-1.334h8a4 4 0 010 8zm-6.666-2.666h6.666a1.333 1.333 0 000-2.667h-6.666v2.667zM88.277 62.39a5.842 5.842 0 00-3.98-1.719l-5.453-16.358a5.327 5.327 0 00-5.06-3.646H42.218a5.327 5.327 0 00-5.06 3.646l-5.453 16.358a5.883 5.883 0 00-5.704 5.881v10.115A5.34 5.34 0 0031.334 82h9.334v5.333h-8v-2.666H30v2.666A2.67 2.67 0 0032.668 90h8a2.67 2.67 0 002.666-2.667V82h29.334v5.333A2.67 2.67 0 0075.334 90h8a2.67 2.67 0 002.667-2.667v-5.502a5.343 5.343 0 004-5.164V66.552a5.847 5.847 0 00-1.724-4.162zm-46.06-19.057h31.567a2.665 2.665 0 012.53 1.824l.282.843h-37.19l.282-.843a2.664 2.664 0 012.53-1.824zm-3.7 5.334h38.967l4 12H34.518l4-12zm44.817 38.666h-8V82h8l.002 5.333h-.002zm4-10.666a2.67 2.67 0 01-2.666 2.666H31.334a2.67 2.67 0 01-2.666-2.666V66.552a3.219 3.219 0 013.219-3.219h52.228a3.22 3.22 0 013.22 3.22v10.114z" fill="#fff"/><path d="M36.665 66A5.334 5.334 0 1042 71.333 5.34 5.34 0 0036.665 66zm0 8a2.667 2.667 0 110-5.335 2.667 2.667 0 010 5.335zm42.667-8a5.334 5.334 0 105.334 5.333A5.34 5.34 0 0079.332 66zm0 8a2.667 2.667 0 110-5.334 2.667 2.667 0 010 5.334zm-34.666-6.667h26.667V70H44.666v-2.667zm0 5.334h26.667v2.666H44.666v-2.666z" fill="#fff"/></svg>