<svg width="100" height="100" fill="none" xmlns="http://www.w3.org/2000/svg"><path fill="#003DD6" d="M0 0h100v100H0z"/><path fill-rule="evenodd" clip-rule="evenodd" d="M81.084 34.5c0-6.064-.002-9.107-.555-11.631A24 24 0 0062.215 4.555C59.68 4 56.62 4 50.5 4s-9.18 0-11.715.555A24 24 0 0020.47 22.869c-.553 2.524-.555 5.567-.555 11.631v1.844H12V96h77V36.344h-7.916V34.5zm-57.168 0c0-6.269.025-8.779.462-10.776A20 20 0 0139.64 8.462C41.646 8.023 44.17 8 50.5 8c6.33 0 8.854.023 10.86.462a20 20 0 0115.262 15.262c.437 1.997.462 4.507.462 10.776H23.916zM16 40.344V92h69V40.344H16zm28.383 23.673l6.416-6.408 6.417 6.408-5.186 5.18 5.186 5.18H44.383l5.186-5.18-5.186-5.18z" fill="#fff"/></svg>