<svg width="100" height="100" fill="none" xmlns="http://www.w3.org/2000/svg"><path fill="#003DD6" d="M0 0h100v100H0z"/><path d="M49.332 38.21a8 8 0 108 8 8.008 8.008 0 00-8-8zm0 13.334a5.334 5.334 0 110-10.667 5.334 5.334 0 010 10.667zM18.666 36.667a8 8 0 108-8 8.008 8.008 0 00-8 8zm13.333 0a5.333 5.333 0 11-10.665 0 5.333 5.333 0 0110.665 0zm33.333 0a8 8 0 108-8 8.008 8.008 0 00-8 8zm8-5.334a5.334 5.334 0 110 10.668 5.334 5.334 0 010-10.668z" fill="#fff"/><path d="M13.332 52.667V70a1.333 1.333 0 001.333 1.333h3.902l-1.235 17.239A1.335 1.335 0 0018.665 90H24a1.333 1.333 0 001.333-1.23l1.235-16.103h.197L28 88.769A1.334 1.334 0 0029.332 90h5.333A1.334 1.334 0 0036 88.592l-1.334-23.925v-5.102l6.634 5.686L40 88.592A1.334 1.334 0 0041.332 90h5.333A1.333 1.333 0 0048 88.787l1.217-13.454h.232l1.217 13.454A1.334 1.334 0 0052 90h5.333a1.334 1.334 0 001.333-1.408l-1.293-23.287 7.304-5.477L61.36 76.4a1.333 1.333 0 001.306 1.6h1.924L64 88.592A1.334 1.334 0 0065.332 90h5.333A1.333 1.333 0 0072 88.77L72.823 78h1.018l.824 10.77A1.333 1.333 0 0076 90h5.333a1.332 1.332 0 001.333-1.428L81.908 78h3.424a1.332 1.332 0 001.31-1.583l-4.714-24.749a5.334 5.334 0 00-5.239-4.335h-8.312a6.616 6.616 0 00-3.88 1.247c-.04.028-.079.06-.116.092l-8.894 8H44.51l-8.895-8a1.255 1.255 0 00-.116-.092 6.616 6.616 0 00-3.88-1.247H18.665a5.333 5.333 0 00-5.333 5.334zm20.56-1.959l9.215 8.284c.245.22.562.342.892.341h12c.329 0 .647-.12.892-.341l9.214-8.284A3.98 3.98 0 0168.372 50h8.312a2.667 2.667 0 012.619 2.167l4.418 23.166h-3.246a1.334 1.334 0 00-1.334 1.428l.76 10.572h-2.668l-.828-10.769a1.333 1.333 0 00-1.333-1.23h-3.484a1.333 1.333 0 00-1.333 1.23l-.824 10.77h-2.69l.588-10.593A1.332 1.332 0 0066 75.333h-1.707l3.68-18.4a1.333 1.333 0 00-2.107-1.333l-10.666 8a1.333 1.333 0 00-.534 1.141l1.258 22.592h-2.707L52 73.88a1.333 1.333 0 00-1.334-1.213H48a1.333 1.333 0 00-1.334 1.213l-1.217 13.453h-2.707L44 64.741a1.334 1.334 0 00-.464-1.086l-9.334-8A1.334 1.334 0 0032 56.667v8.074l1.257 22.592h-2.69l-1.234-16.102A1.333 1.333 0 0027.999 70h-2.667a1.333 1.333 0 00-1.333 1.23l-1.235 16.103h-2.667l1.235-17.238c0-.032-.012-.063-.012-.095h.012V56.667h-2.667v12H16v-16A2.667 2.667 0 0118.665 50H31.62a3.98 3.98 0 012.272.708zM53.065 10h-7.467a17.965 17.965 0 00-17.573 14.4 1.333 1.333 0 002.14 1.303 9.285 9.285 0 0111.666 0 1.334 1.334 0 001.667 0 9.333 9.333 0 014.5-1.944v11.574h2.667V23.76c1.647.237 3.2.91 4.5 1.949a1.334 1.334 0 001.666 0 9.285 9.285 0 0111.667 0 1.333 1.333 0 002.133-1.303A17.965 17.965 0 0053.066 10zm2.933 13.015a11.92 11.92 0 00-13.333 0 11.91 11.91 0 00-11.043-1.2 15.305 15.305 0 0113.976-9.148h7.467a15.306 15.306 0 0113.973 9.144 11.914 11.914 0 00-11.04 1.204z" fill="#fff"/></svg>