<svg width="11" height="25" fill="none" xmlns="http://www.w3.org/2000/svg"><path d="M.842 23.691c.254.317.626.53 1.048.576l5.372.603a2.33 2.33 0 001.726-.499 2.33 2.33 0 00.866-1.575l.592-5.373a1.562 1.562 0 00-.803-1.544 1.56 1.56 0 00-1.73.148L5.109 18.27C1.233 13.427 2.022 6.333 6.866 2.458l.976-.781a.781.781 0 10-.976-1.22l-.976.78a12.729 12.729 0 00-4.73 8.59 12.73 12.73 0 002.728 9.42 1.564 1.564 0 002.197.244l2.804-2.243c.001 0 .003 0 .004.002v.002L8.3 22.625a.777.777 0 01-.289.526.777.777 0 01-.576.166l-5.372-.602h-.002l-.002-.005.67-.535a.781.781 0 00-.977-1.22l-.668.535a1.569 1.569 0 00-.243 2.201z" fill="#1A1B1F"/></svg>