<svg width="1504" height="705" fill="none" xmlns="http://www.w3.org/2000/svg"><circle opacity=".6" cx="267.5" cy="402.5" r="255.832" stroke="#E5E5E5" stroke-width="1.336" stroke-dasharray="5.35 5.35"/><circle opacity=".8" cx="267.5" cy="402.5" r="188.832" stroke="#E5E5E5" stroke-width="1.336" stroke-dasharray="5.35 5.35"/><circle cx="267.5" cy="402.5" r="129.832" stroke="#E5E5E5" stroke-width="1.336" stroke-dasharray="5.35 5.35"/><g clip-path="url(#clip0)"><path d="M204.799 573.228l-81.36 93.485c-23.642 27.159-65.045 6.303-62.922-25.24l52.873-71.656 56.377-36.781 35.032 40.192z" fill="#0049FD"/><path d="M318.045 243.839l29.045 7.25a13.01 13.01 0 015.8 3.194 13.094 13.094 0 013.492 5.641l-7.965-1.159-29.363 9.009-1.009-23.935z" fill="#313943"/><path d="M329.222 264.629l-.186 4.331c0 .986-.093 1.985-.093 2.998" fill="#839CB0"/><path d="M144.108 485.62l12.876 25.4c20.443 67.125 82.966 69.524 149.393 43.977 56.842-21.961 88.873-84.089 73.979-143.352a122.865 122.865 0 00-11.748-29.824L347.462 345a140.018 140.018 0 01-18.585-72.882v-.16a46.472 46.472 0 00-3-22.655 46.818 46.818 0 00-20.175-23.304 46.537 46.537 0 00-30.236-5.649 46.635 46.635 0 00-27.176 14.457 46.96 46.96 0 00-12.322 28.289.587.587 0 000 .213l-.093 5.744-.292 24.814a138.212 138.212 0 01-18.903 67.804L144.108 485.62z" fill="#DCE1E5"/><path d="M294.828 254.341a10.47 10.47 0 00-3.395-5.017 10.384 10.384 0 00-11.513-1.066 10.444 10.444 0 00-4.251 4.309 10.493 10.493 0 001.173 11.548 10.387 10.387 0 0011.07 3.352 10.455 10.455 0 006.175-5.12 10.498 10.498 0 00.741-8.006z" fill="#FF1900"/><path d="M287.035 256.806a2.264 2.264 0 00-4.177-.406 2.28 2.28 0 001.358 3.252c.431.129.89.126 1.319-.008a2.23 2.23 0 00.779-.419 2.258 2.258 0 00.721-2.419z" fill="#313943"/><path d="M235.941 269.04l.093-5.744a43.693 43.693 0 00-.093 5.744z" fill="#839CB0"/><path d="M225.255 344.347c38.391-6.663 71.471-11.994 109.635-18.657a144.133 144.133 0 006.863 10.661l24.704 34.476a122.268 122.268 0 0114.642 28.571c20.709 57.477-4.991 122.51-59.39 149.976-63.546 32.116-126.003 35.981-153.003-28.759l-26.629-33.849 71.683-119.937c2.694-6.077 9.637-16.258 11.495-22.482z" fill="#DCE1E5"/><path d="M296.514 685.836h-38.988l-18.279-54.558" stroke="#EEBDD0" stroke-width="5.346" stroke-miterlimit="10" stroke-linecap="round"/><path d="M246.919 540.525l10.726 96.083a15.729 15.729 0 01-1.204 7.989 15.667 15.667 0 01-5.008 6.324l-.292.227a15.511 15.511 0 01-9.877 3.078 15.544 15.544 0 01-7.38-2.179 15.62 15.62 0 01-5.443-5.457l-33.014-55.651 51.492-50.414z" fill="#0049FD"/><path d="M281.712 701.801l-23.39-13.406" stroke="#EEBDD0" stroke-width="5.346" stroke-miterlimit="10" stroke-linecap="round"/><path d="M164.922 631.771l-16.633 54.425 39.107.186" stroke="#EEBDD0" stroke-width="5.346" stroke-linecap="round" stroke-linejoin="round"/><path d="M156.134 575.054l-6.212 62.701a12.47 12.47 0 002.031 8.182 12.411 12.411 0 006.704 4.946c2.735.826 5.67.679 8.31-.415l1.46-.6a12.477 12.477 0 005.841-4.984c6.982-11.421 29.31-47.855 34.832-56.331.704-1.079 1.222-1.772 1.222-1.772l-54.188-11.727z" fill="#0049FD"/><path d="M171.679 699.416l-23.39-13.407" stroke="#EEBDD0" stroke-width="5.346" stroke-miterlimit="10" stroke-linecap="round"/><path d="M258.07 343.428a72.077 72.077 0 0144.43 6.425 72.47 72.47 0 0132.098 31.502c45.519 87.501.492 196.537-94.249 222.777-1.77.48-3.54.924-5.31 1.333a156.787 156.787 0 01-74.511-.187L62.508 677.8c-23.774 17.605-53.841-11.66-37.036-35.981 40.9-59.369 132.123-193.699 173.898-255.32 14.042-20.715 34.777-35.929 58.7-43.071z" fill="#CCC"/><mask id="a" maskUnits="userSpaceOnUse" x="20" y="342" width="333" height="342"><path d="M258.07 343.428a72.077 72.077 0 0144.43 6.425 72.47 72.47 0 0132.098 31.502c45.519 87.501.492 196.537-94.249 222.777-1.77.48-3.54.924-5.31 1.333a156.787 156.787 0 01-74.511-.187L62.508 677.8c-23.774 17.605-53.841-11.66-37.036-35.981 40.9-59.369 132.123-193.699 173.898-255.32 14.042-20.715 34.777-35.929 58.7-43.071z" fill="#CCC"/></mask><g mask="url(#a)"><path d="M404.489 351.077a175.354 175.354 0 00-28.458-62.037 174.637 174.637 0 00-49.942-46.382 173.951 173.951 0 00-63.82-23.664 173.714 173.714 0 00-67.983 2.657C100.633 244.173 65.35 432.714 65.35 432.714l24.531 45.71a150.77 150.77 0 0050.635 55.117 150.014 150.014 0 0070.801 23.869 149.175 149.175 0 0064.636-9.443 149.637 149.637 0 0054.477-36.174c40.767-42.751 87.201-105.731 74.059-160.716z" fill="#313943"/></g><path d="M284.872 243.839c-23.204 0-42.014-6.622-42.014-14.792s18.81-14.792 42.014-14.792c23.203 0 42.014 6.622 42.014 14.792s-18.811 14.792-42.014 14.792z" fill="#313943"/><path d="M309.002 168.852h-49.116a6.49 6.49 0 00-4.6 1.912 6.535 6.535 0 00-1.905 4.618v55.851h62.125v-55.851a6.544 6.544 0 00-1.905-4.618 6.493 6.493 0 00-4.599-1.912z" fill="#313943"/><mask id="b" maskUnits="userSpaceOnUse" x="253" y="168" width="63" height="64"><path d="M309.002 168.852h-49.116a6.49 6.49 0 00-4.6 1.912 6.535 6.535 0 00-1.905 4.618v55.851h62.125v-55.851a6.544 6.544 0 00-1.905-4.618 6.493 6.493 0 00-4.599-1.912z" fill="#313943"/></mask><g mask="url(#b)"><path d="M242.844 211.963c0 8.169 18.81 14.792 42.014 14.792 23.204 0 42.028-6.663 42.028-14.792" stroke="#FF1900" stroke-width="8.019" stroke-miterlimit="10"/></g><g clip-path="url(#clip1)"><path d="M429.023 295.734l-24.077-36.95a8.377 8.377 0 00-7.158-3.789l-44.24.784a2.752 2.752 0 00-2.326 1.449 2.756 2.756 0 00.206 2.556l23.922 37.242a8.265 8.265 0 007.158 3.789l44.394-1.076a2.755 2.755 0 002.23-1.266 2.757 2.757 0 00-.109-2.739z" fill="#B06328"/><path d="M421.966 293.697l3.123-3.926-2.963-4.561-6.528 12.332-32.044-2.47a5.511 5.511 0 01-3.884-2.056l-28.499-35.691a2.752 2.752 0 00.257 2.458l23.922 37.242a8.266 8.266 0 007.158 3.79l44.395-1.076a2.753 2.753 0 002.177-1.169l-5.111-.384a2.755 2.755 0 01-2.003-4.489z" fill="#A35425"/><path d="M429.132 298.473a2.755 2.755 0 01-2.23 1.266l-44.248 1.153a8.263 8.263 0 01-7.158-3.789l-24.068-37.32a2.754 2.754 0 01-.206-2.555l-25.887 48.9a3.898 3.898 0 001.621 5.269l71.02 37.597a3.897 3.897 0 005.268-1.621l25.888-48.9z" fill="#FFCB5B"/><path d="M429.132 298.472a2.753 2.753 0 01-2.229 1.266l-44.248 1.153a8.263 8.263 0 01-7.158-3.789l-24.069-37.32a2.647 2.647 0 01-.293-.623 2.75 2.75 0 01-.045-.444l-.038-.223a2.763 2.763 0 01.031-.56l.039-.073c0-.184.019-.367.056-.547l.045-.085-1.289 2.434a2.754 2.754 0 00.049 2.676l22.713 39.173.26.45a8.263 8.263 0 01.169 8.1l-4.169 7.876a8.36 8.36 0 01-11.301 3.477l-20.61-10.91a5.51 5.51 0 00-7.447 2.291l68.378 36.199a3.899 3.899 0 005.269-1.621l25.887-48.9z" fill="#F7B84E"/><path d="M419.536 260.664l-40.173-21.267a4.133 4.133 0 00-5.585 1.719l-15.505 29.289 17.144 26.671a8.266 8.266 0 007.158 3.79l31.695-.817 10.995-20.767-5.729-18.618z" fill="#E9E9E9"/><path d="M377.664 296.069l-18.708-26.954-.683 1.29 17.144 26.671a8.266 8.266 0 007.158 3.79l31.695-.817.683-1.29-32.809-.319a5.511 5.511 0 01-4.48-2.371z" fill="#DBDAD9"/><path d="M390.033 257.514l17.043 9.022a1.378 1.378 0 01-1.289 2.435l-17.043-9.023a1.376 1.376 0 011.289-2.434z" fill="#595A66"/><path d="M377.001 261.524l17.042 9.022a1.377 1.377 0 01-1.288 2.435l-17.043-9.022a1.378 1.378 0 011.289-2.435zm-6.445 12.173l25.564 13.534a1.376 1.376 0 11-1.288 2.434l-25.565-13.533a1.378 1.378 0 011.289-2.435zm3.223-6.086l10.956 5.8a1.376 1.376 0 01-1.289 2.434l-10.956-5.8a1.376 1.376 0 111.289-2.434zm27.998 14.822l8.522 4.511a1.378 1.378 0 01-1.289 2.435l-8.522-4.511a1.378 1.378 0 011.289-2.435zm-12.173-6.444l7.304 3.866a1.378 1.378 0 01-1.289 2.435l-7.304-3.867a1.378 1.378 0 111.289-2.434zm9.309-2.865l14.608 7.733a1.378 1.378 0 01-1.289 2.435l-14.608-7.733a1.378 1.378 0 011.289-2.435z" fill="#9BA7AF"/><path d="M416.743 274.771l8.521 4.511-5.728-18.618-4.512 8.521a4.134 4.134 0 001.719 5.586z" fill="#CAD1D8"/><path d="M425.265 279.282l-8.522-4.511 4.01 13.032 4.512-8.521z" fill="#DDDDDC"/><path d="M419.321 296.396a1.376 1.376 0 01-.677-.811A5.274 5.274 0 01422.13 289l7.448-2.292a2.52 2.52 0 001.67-3.149l-.001-.004a1.377 1.377 0 012.625-.808 5.276 5.276 0 01-3.487 6.586l-7.447 2.292a2.52 2.52 0 00-1.67 3.149l.001.004a1.377 1.377 0 01-1.948 1.618z" fill="#AFBABF"/><path d="M393.614 289.021a1.378 1.378 0 01-.306-2.219l3.151-3.008a1.38 1.38 0 011.907 1.992l-1.159 1.1 1.577.259a1.378 1.378 0 11-.457 2.719l-4.297-.716a1.383 1.383 0 01-.416-.127z" fill="#35363E"/><path d="M401.038 280.031l3.203 10.408a1.377 1.377 0 001.716.908l26.611-8.198-4.01-13.033-26.604 8.187a1.377 1.377 0 00-.916 1.728z" fill="#3689C9"/><path d="M431.709 280.356l-21.801 6.709a1.379 1.379 0 01-1.717-.909l-.825-2.681a1.377 1.377 0 00-1.493-.978c-.689.212-1.321.376-1.968-1.728l-.459-1.489a1.377 1.377 0 00-1.493-.978 1.377 1.377 0 00-.908 1.717l2.737 8.93.453 1.471a1.377 1.377 0 001.716.908l26.617-8.179-.859-2.793z" fill="#1470B8"/><path d="M428.558 270.116l4.011 13.032 2.885-.888a6.887 6.887 0 004.512-8.521 6.888 6.888 0 00-8.522-4.511l-2.886.888zm-32.532 13.496l2.057 6.684a1.376 1.376 0 001.716.908l4.27-1.324-2.864-9.309-4.264 1.312a1.377 1.377 0 00-.918 1.718l.003.011z" fill="#595A66"/><path d="M401.204 280.571a1.943 1.943 0 00-1.292 2.424l.003.011 1.146 3.723a1.888 1.888 0 01-1.289 2.435l-1.861.573.166.54a1.378 1.378 0 001.716.909l4.276-1.306-2.865-9.309z" fill="#35363E"/><path d="M423.475 276.776a1.377 1.377 0 01.237-2.54l7.447-2.291a1.377 1.377 0 01.808 2.625l-7.447 2.291c-.346.111-.722.08-1.045-.085z" fill="#4C9CD6"/><path d="M430.111 275.162l1.862-.573a1.378 1.378 0 00-.808-2.625l-1.862.573.808 2.625z" fill="#6F707E"/><path d="M432.568 283.149l1.862-.573a1.529 1.529 0 00.857-1.884 1.376 1.376 0 00-1.716-.909l-1.862.573.859 2.793z" fill="#35363E"/><path d="M405.964 291.335a1.377 1.377 0 01-1.717-.909l-.178-.546-4.264 1.312a1.377 1.377 0 01-1.716-.909l-.178-.546-3.898-.645a1.39 1.39 0 01-.399-.071l4.37 2.314a24.429 24.429 0 008.829 2.694l10.074 1.078 4.511-8.521-15.434 4.749z" fill="#DBDAD9"/></g></g><g clip-path="url(#clip2)"><path d="M98.195 164.007l-19.352-4.159a3.76 3.76 0 00-3.478 1.056L61.52 175.141c-.3.32-.408.776-.283 1.197.15.378.477.658.873.749l19.396 4.301a3.71 3.71 0 003.478-1.056l13.802-14.379c.28-.296.395-.71.31-1.108a1.234 1.234 0 00-.9-.838z" fill="#B06328"/><path d="M95.303 165.589l-.246-2.238-2.386-.516 1.82 5.992-10.99 9.345a2.474 2.474 0 01-1.887.572l-20.363-2.359c.16.357.478.617.86.702l19.395 4.3a3.709 3.709 0 003.478-1.055l13.802-14.379c.27-.282.39-.676.324-1.061l-1.75 1.494a1.237 1.237 0 01-2.057-.797z" fill="#A35425"/><path d="M99.096 164.845c.085.398-.03.812-.31 1.108L85.055 180.31a3.71 3.71 0 01-3.478 1.056l-19.467-4.279a1.237 1.237 0 01-.873-.749L68.45 200.1a1.749 1.749 0 002.182 1.166l34.511-10.477a1.75 1.75 0 001.166-2.182l-7.214-23.762z" fill="#FFCB5B"/><path d="M99.096 164.845c.085.398-.03.813-.31 1.109l-13.731 14.357a3.71 3.71 0 01-3.478 1.056l-19.466-4.279a1.2 1.2 0 01-.291-.106 1.27 1.27 0 01-.155-.127l-.082-.059a1.212 1.212 0 01-.167-.189l-.011-.035a1.26 1.26 0 01-.156-.192l-.012-.042.36 1.184c.122.409.448.725.86.836l19.621 5.298.225.061a3.71 3.71 0 012.615 2.527l1.162 3.827a3.752 3.752 0 01-2.5 4.681l-10.016 3.04a2.473 2.473 0 00-1.647 3.085l33.227-10.087a1.75 1.75 0 001.166-2.182l-7.214-23.763z" fill="#F7B84E"/><path d="M84.085 155.834l-19.52 5.927a1.854 1.854 0 00-1.237 2.313l4.321 14.232 13.894 3.077a3.71 3.71 0 003.478-1.056l9.84-10.281-3.065-10.092-7.71-4.12z" fill="#E9E9E9"/><path d="M81.94 180.351l-14.481-2.672.19.627 13.894 3.077a3.71 3.71 0 003.478-1.056l9.84-10.281-.191-.627-10.553 10.271a2.474 2.474 0 01-2.177.661z" fill="#DBDAD9"/><path d="M73.69 164.158l8.283-2.514a.618.618 0 11.359 1.183l-8.282 2.514a.617.617 0 11-.36-1.183z" fill="#595A66"/><path d="M70.807 169.556l8.282-2.514a.618.618 0 11.359 1.183l-8.282 2.514a.618.618 0 11-.359-1.183zm1.796 5.916l12.422-3.772a.619.619 0 01.36 1.184l-12.423 3.771a.619.619 0 01-.359-1.183zm-.898-2.958l5.324-1.616a.618.618 0 11.36 1.183l-5.325 1.616a.618.618 0 11-.359-1.183zm13.605-4.13l4.141-1.258a.619.619 0 01.36 1.184l-4.141 1.257a.619.619 0 01-.36-1.183zm-5.915 1.795l3.55-1.077a.618.618 0 11.359 1.183l-3.55 1.077a.617.617 0 11-.359-1.183zm2.06-3.855l7.099-2.155a.618.618 0 11.359 1.183l-7.099 2.155a.618.618 0 11-.359-1.183z" fill="#9BA7AF"/><path d="M87.656 161.211l4.14-1.257-7.71-4.12 1.256 4.141a1.854 1.854 0 002.314 1.236z" fill="#CAD1D8"/><path d="M91.796 159.954l-4.14 1.257 5.397 2.884-1.257-4.141z" fill="#DDDDDC"/></g><g clip-path="url(#clip3)"><path d="M35.758 362.771l-4.91-10.248a2.158 2.158 0 00-1.701-1.209l-11.328-1.286a.712.712 0 00-.643.292.71.71 0 00-.033.66l4.86 10.318c.317.672.962 1.13 1.701 1.208l11.378 1.217a.709.709 0 00.612-.249.71.71 0 00.064-.703z" fill="#B06328"/><path d="M34.024 362.013l.93-.898-.604-1.264-2.082 2.931-8.104-1.708a1.419 1.419 0 01-.923-.655l-6.081-10.075a.708.708 0 00-.017.636l4.86 10.318c.317.672.962 1.13 1.701 1.208l11.378 1.217a.71.71 0 00.596-.226l-1.293-.27a.71.71 0 01-.361-1.214z" fill="#A35425"/><path d="M35.694 363.474a.708.708 0 01-.612.249l-11.343-1.192a2.128 2.128 0 01-1.701-1.208l-4.895-10.343a.71.71 0 01.033-.66L8.92 361.943a1.005 1.005 0 00.237 1.401l16.88 11.99c.453.321 1.08.215 1.401-.237l8.256-11.623z" fill="#FFCB5B"/><path d="M35.694 363.474a.709.709 0 01-.612.249l-11.343-1.192a2.128 2.128 0 01-1.701-1.208l-4.895-10.343a.666.666 0 01-.054-.169.702.702 0 01.003-.115l-.002-.058a.705.705 0 01.027-.142l.012-.017a.721.721 0 01.033-.138l.014-.02-.411.578a.71.71 0 00-.078.685l4.487 10.771.052.123a2.13 2.13 0 01-.23 2.075l-1.329 1.872a2.154 2.154 0 01-3.004.509l-4.898-3.479a1.42 1.42 0 00-1.98.335l16.253 11.544a1.004 1.004 0 001.4-.237l8.256-11.623z" fill="#F7B84E"/><path d="M34.512 353.493l-9.548-6.782a1.064 1.064 0 00-1.484.251l-4.945 6.962 3.483 7.389c.318.672.963 1.13 1.702 1.209l8.124.856 3.507-4.936-.839-4.949z" fill="#E9E9E9"/><path d="M22.627 361.131l-3.874-7.514-.218.307 3.483 7.389c.318.672.963 1.13 1.702 1.209l8.124.856.218-.307-8.37-1.183a1.423 1.423 0 01-1.066-.757z" fill="#DBDAD9"/><path d="M27.081 351.697l4.051 2.878a.354.354 0 11-.41.578l-4.052-2.877a.355.355 0 01.411-.579z" fill="#595A66"/><path d="M23.617 352.284l4.051 2.877a.355.355 0 01-.411.579l-4.05-2.877a.355.355 0 01.41-.579zm-2.055 2.893l6.076 4.316a.355.355 0 01-.41.579l-6.077-4.316a.355.355 0 01.411-.579zm1.028-1.446l2.604 1.849a.355.355 0 01-.411.579l-2.604-1.85a.355.355 0 11.41-.578zm6.655 4.727l2.025 1.438a.355.355 0 01-.411.579l-2.026-1.439a.355.355 0 11.412-.578zm-2.894-2.056l1.736 1.234a.354.354 0 11-.41.578l-1.737-1.233a.355.355 0 01.411-.579zm2.475-.419l3.472 2.467a.355.355 0 11-.412.578l-3.472-2.466a.355.355 0 01.412-.579z" fill="#9BA7AF"/><path d="M33.325 357.003l2.026 1.439-.838-4.949-1.44 2.025c-.34.48-.227 1.144.252 1.485z" fill="#CAD1D8"/><path d="M35.35 358.442l-2.025-1.439.587 3.464 1.439-2.025z" fill="#DDDDDC"/></g><g clip-path="url(#clip4)"><path d="M466.36 531.769l-11.353-.498a2.159 2.159 0 00-1.868.931l-6.471 9.386a.711.711 0 00-.045.705c.121.2.333.327.566.34l11.391.574a2.128 2.128 0 001.867-.931l6.434-9.462a.714.714 0 00.069-.657.71.71 0 00-.59-.388z" fill="#B06328"/><path d="M464.874 532.942l-.354-1.244-1.4-.063 1.605 3.217-5.324 6.344c-.253.301-.62.484-1.013.505l-11.753.617c.125.187.33.304.554.315l11.391.574a2.128 2.128 0 001.867-.931l6.434-9.462a.712.712 0 00.081-.632l-.847 1.013a.71.71 0 01-1.241-.253z" fill="#A35425"/><path d="M466.95 532.157a.714.714 0 01-.069.657l-6.396 9.443a2.128 2.128 0 01-1.867.931l-11.429-.555a.708.708 0 01-.566-.34l6.362 12.758c.247.497.85.698 1.347.451l18.529-9.24c.497-.248.698-.851.451-1.347l-6.362-12.758z" fill="#FFCB5B"/><path d="M466.95 532.156a.716.716 0 01-.069.658l-6.396 9.443a2.128 2.128 0 01-1.867.931l-11.429-.555a.7.7 0 01-.175-.032.713.713 0 01-.1-.057l-.052-.026a.744.744 0 01-.113-.09l-.009-.019a.679.679 0 01-.106-.094l-.011-.022.316.635c.109.22.324.368.568.391l11.614 1.117.133.013a2.132 2.132 0 011.723 1.18l1.025 2.054a2.155 2.155 0 01-.967 2.89l-5.377 2.681a1.42 1.42 0 00-.637 1.904l17.84-8.896c.497-.248.698-.851.451-1.347l-6.362-12.759z" fill="#F7B84E"/><path d="M457.589 528.496l-10.481 5.227c-.526.262-.74.901-.478 1.428l3.811 7.641 8.159.409a2.129 2.129 0 001.868-.931l4.583-6.763-2.702-5.419-4.76-1.592z" fill="#E9E9E9"/><path d="M458.726 542.579l-8.453-.123.168.336 8.159.409a2.13 2.13 0 001.868-.931l4.583-6.763-.168-.337-4.988 6.826a1.42 1.42 0 01-1.169.583z" fill="#DBDAD9"/><path d="M452.504 534.205l4.446-2.218a.355.355 0 01.317.635l-4.446 2.218a.355.355 0 01-.317-.635z" fill="#595A66"/><path d="M451.389 537.536l4.447-2.217a.355.355 0 01.317.635l-4.447 2.218a.355.355 0 01-.317-.636zm1.584 3.176l6.67-3.326a.355.355 0 01.317.636l-6.67 3.326a.355.355 0 01-.317-.636zm-.792-1.588l2.859-1.425a.355.355 0 11.316.635l-2.858 1.426a.355.355 0 01-.317-.636zm7.305-3.642l2.224-1.109a.354.354 0 01.475.159.354.354 0 01-.159.476l-2.223 1.109a.356.356 0 01-.317-.635zm-3.176 1.583l1.906-.95a.355.355 0 01.317.635l-1.906.951a.355.355 0 01-.317-.636zm.796-2.379l3.812-1.901a.355.355 0 11.316.635l-3.811 1.901a.355.355 0 01-.317-.635z" fill="#9BA7AF"/><path d="M460.126 531.197l2.223-1.109-4.76-1.592 1.109 2.223c.262.527.901.74 1.428.478z" fill="#CAD1D8"/><path d="M462.349 530.088l-2.223 1.109 3.332 1.115-1.109-2.224z" fill="#DDDDDC"/></g><g clip-path="url(#clip5)"><path d="M398.318 90.942l-14.072-1.01a2.678 2.678 0 00-2.35 1.09l-8.357 11.426a.881.881 0 00-.08.873.88.88 0 00.691.442l14.117 1.106a2.642 2.642 0 002.35-1.091l8.312-11.522a.88.88 0 00.108-.813.88.88 0 00-.719-.501z" fill="#B06328"/><path d="M396.434 92.346l-.396-1.555-1.735-.127 1.88 4.048-6.827 7.689c-.325.365-.786.58-1.275.592l-14.607.36a.88.88 0 00.676.41l14.117 1.106a2.644 2.644 0 002.35-1.091l8.312-11.522a.88.88 0 00.123-.78l-1.086 1.228a.882.882 0 01-1.532-.358z" fill="#A35425"/><path d="M399.037 91.443a.88.88 0 01-.108.813l-8.264 11.5a2.644 2.644 0 01-2.35 1.091l-14.165-1.084a.882.882 0 01-.691-.442l7.455 16.055c.29.624 1.032.896 1.656.605l23.317-10.827c.624-.29.896-1.032.606-1.656l-7.456-16.055z" fill="#FFCB5B"/><path d="M399.037 91.443c.1.272.059.576-.108.813l-8.264 11.499a2.642 2.642 0 01-2.35 1.091l-14.165-1.084a.84.84 0 01-.216-.045.95.95 0 01-.122-.075l-.064-.033a.945.945 0 01-.137-.116l-.011-.024a.858.858 0 01-.128-.12l-.013-.028.371.799a.882.882 0 00.691.505l14.376 1.788.165.02a2.647 2.647 0 012.097 1.524l1.2 2.585a2.675 2.675 0 01-1.299 3.553l-6.766 3.142a1.763 1.763 0 00-.857 2.341l22.449-10.425c.625-.29.896-1.031.606-1.656l-7.455-16.054z" fill="#F7B84E"/><path d="M387.546 86.577L374.357 92.7a1.322 1.322 0 00-.642 1.756l4.466 9.616 10.112.789a2.644 2.644 0 002.35-1.091l5.922-8.235-3.166-6.819-5.853-2.14z" fill="#E9E9E9"/><path d="M388.471 104.094l-10.487-.445.196.424 10.113.789a2.644 2.644 0 002.35-1.091l5.922-8.235-.197-.424-6.426 8.299c-.35.453-.899.708-1.471.683z" fill="#DBDAD9"/><path d="M381.038 93.486l5.595-2.599a.44.44 0 11.371.8l-5.595 2.598a.44.44 0 11-.371-.8z" fill="#595A66"/><path d="M379.539 97.583l5.595-2.599a.442.442 0 01.372.8l-5.596 2.598a.44.44 0 01-.371-.8zm1.856 3.996l8.393-3.897a.44.44 0 11.371.8l-8.393 3.897a.441.441 0 01-.371-.8zm-.928-1.999l3.597-1.67a.44.44 0 11.371.8l-3.597 1.67a.44.44 0 11-.371-.8zm9.192-4.268l2.798-1.299a.44.44 0 11.371.8l-2.797 1.299a.442.442 0 01-.372-.8zm-3.996 1.856l2.398-1.113a.44.44 0 11.371.799l-2.398 1.114a.44.44 0 11-.371-.8zm1.07-2.926l4.796-2.227a.44.44 0 11.371.8l-4.796 2.226a.44.44 0 01-.371-.799z" fill="#9BA7AF"/><path d="M390.601 90.016l2.798-1.299-5.853-2.14 1.299 2.797c.308.663 1.094.95 1.756.642z" fill="#CAD1D8"/><path d="M393.399 88.717l-2.798 1.3 4.097 1.498-1.299-2.798z" fill="#DDDDDC"/></g><g clip-path="url(#clip6)"><path d="M1487.78 419.139l-11.36-.172c-.74-.01-1.44.361-1.84.984l-6.2 9.568a.736.736 0 00-.03.705c.13.196.35.318.58.324l11.4.248c.75.015 1.44-.358 1.84-.984l6.16-9.643a.675.675 0 00.05-.659.712.712 0 00-.6-.371z" fill="#B06328"/><path d="M1486.33 420.354l-.39-1.232-1.4-.024 1.7 3.171-5.14 6.492a1.44 1.44 0 01-1 .535l-11.73.953c.13.183.34.294.56.299l11.4.248c.75.015 1.44-.358 1.84-.985l6.16-9.642a.712.712 0 00.07-.634l-.82 1.037a.717.717 0 01-1 .144.683.683 0 01-.25-.362z" fill="#A35425"/><path d="M1488.38 419.51c.1.215.08.461-.05.659l-6.12 9.622c-.4.627-1.1 1-1.84.985l-11.44-.228a.726.726 0 01-.58-.324l6.73 12.571c.26.489.87.674 1.36.412l18.26-9.767c.48-.261.67-.87.41-1.359l-6.73-12.571z" fill="#FFCB5B"/><path d="M1488.38 419.51c.1.215.08.461-.05.659l-6.12 9.622c-.4.627-1.1 1-1.84.985l-11.44-.228a.7.7 0 01-.18-.027c-.03-.015-.06-.033-.1-.054l-.05-.024a1.131 1.131 0 01-.12-.087l-.01-.019c-.03-.027-.07-.057-.1-.091l-.02-.022.34.626c.11.217.33.358.58.375l11.64.784.13.009c.74.044 1.41.472 1.76 1.13l1.08 2.024c.56 1.05.17 2.355-.88 2.916l-5.3 2.834a1.42 1.42 0 00-.58 1.922l17.58-9.404c.48-.261.67-.87.41-1.359l-6.73-12.571z" fill="#F7B84E"/><path d="M1478.92 416.119l-10.33 5.525c-.51.277-.71.922-.43 1.441l4.03 7.529 8.16.175c.75.015 1.44-.358 1.84-.984l4.39-6.892-2.86-5.339-4.8-1.455z" fill="#E9E9E9"/><path d="M1480.46 430.164l-8.45.118.18.332 8.16.175c.75.015 1.44-.358 1.84-.984l4.39-6.892-.18-.332-4.79 6.966c-.26.381-.69.61-1.15.617z" fill="#DBDAD9"/><path d="M1474 421.971l4.38-2.344a.352.352 0 01.48.146c.1.172.03.387-.14.48l-4.38 2.344a.352.352 0 01-.48-.146.348.348 0 01.14-.48z" fill="#595A66"/><path d="M1472.98 425.333l4.38-2.343a.351.351 0 01.48.145c.1.173.03.388-.14.48l-4.38 2.344a.352.352 0 01-.48-.145.35.35 0 01.14-.481zm1.68 3.13l6.57-3.516a.355.355 0 01.48.146c.09.172.03.387-.15.48l-6.57 3.516a.355.355 0 01-.48-.146.352.352 0 01.15-.48zm-.84-1.565l2.82-1.507a.358.358 0 01.48.146.36.36 0 01-.15.48l-2.82 1.507a.358.358 0 01-.48-.146.36.36 0 01.15-.48zm7.2-3.851l2.19-1.171a.354.354 0 11.33.626l-2.19 1.171a.354.354 0 11-.33-.626zm-3.13 1.675l1.88-1.005a.358.358 0 01.48.146.36.36 0 01-.15.48l-1.88 1.004a.354.354 0 01-.48-.145.36.36 0 01.15-.48zm.73-2.402l3.75-2.009a.355.355 0 01.48.146c.09.172.03.387-.14.48l-3.76 2.009a.355.355 0 01-.48-.146.352.352 0 01.15-.48z" fill="#9BA7AF"/><path d="M1481.53 418.746l2.19-1.172-4.8-1.455 1.17 2.191c.28.518.93.714 1.44.436z" fill="#CAD1D8"/><path d="M1483.72 417.574l-2.19 1.172 3.37 1.019-1.18-2.191z" fill="#DDDDDC"/></g><g clip-path="url(#clip7)"><path d="M1443.16 13.213l-11.21-1.845a2.16 2.16 0 00-1.97.702l-7.54 8.55a.727.727 0 00-.13.694c.1.213.29.364.52.405l11.24 1.925c.74.125 1.48-.141 1.97-.702l7.51-8.63a.717.717 0 00.15-.644.713.713 0 00-.54-.455z" fill="#B06328"/><path d="M1441.54 14.2l-.2-1.276-1.38-.23 1.21 3.386-6.04 5.665c-.29.269-.68.407-1.07.38l-11.74-.784c.1.2.29.34.51.378l11.24 1.925c.74.125 1.48-.141 1.97-.702l7.51-8.63c.15-.17.21-.399.16-.617l-.96.905a.717.717 0 01-1.01-.004.818.818 0 01-.2-.396z" fill="#A35425"/><path d="M1443.7 13.668c.06.226 0 .466-.15.644l-7.47 8.615c-.49.562-1.23.828-1.97.703l-11.28-1.91a.713.713 0 01-.52-.406l4.8 13.425c.19.522.76.794 1.28.607l19.5-6.97c.52-.187.79-.761.61-1.284l-4.8-13.424z" fill="#FFCB5B"/><path d="M1443.7 13.668c.06.226 0 .466-.15.644l-7.47 8.616c-.49.56-1.23.827-1.97.702l-11.28-1.91a.749.749 0 01-.17-.053.9.9 0 01-.09-.069l-.05-.031a.577.577 0 01-.1-.104l-.01-.02a1.573 1.573 0 01-.09-.105l-.01-.024.24.669a.71.71 0 00.52.455l11.4 2.491.13.029c.72.153 1.32.675 1.57 1.376l.77 2.162c.4 1.12-.18 2.353-1.3 2.754l-5.66 2.023a1.414 1.414 0 00-.86 1.814l18.77-6.71c.52-.187.79-.762.61-1.285l-4.8-13.424z" fill="#F7B84E"/><path d="M1434.84 8.92l-11.03 3.942c-.55.198-.84.808-.64 1.361l2.87 8.041 8.05 1.376c.74.125 1.48-.141 1.97-.702l5.35-6.17-2.03-5.701-4.54-2.147z" fill="#E9E9E9"/><path d="M1434.29 23.038l-8.37-1.128.12.354 8.05 1.377c.74.124 1.48-.142 1.97-.703l5.35-6.17-.12-.354-5.77 6.184c-.31.338-.77.502-1.23.44z" fill="#DBDAD9"/><path d="M1429.11 13.983l4.68-1.673c.19-.066.39.03.45.215a.353.353 0 01-.21.454l-4.68 1.672a.35.35 0 01-.45-.215.353.353 0 01.21-.453z" fill="#595A66"/><path d="M1427.61 17.158l4.68-1.672a.35.35 0 01.45.214.353.353 0 01-.21.454l-4.68 1.673a.361.361 0 01-.46-.215.358.358 0 01.22-.454zm1.19 3.342l7.02-2.509c.19-.066.39.03.46.215a.358.358 0 01-.22.454l-7.02 2.509a.35.35 0 01-.45-.215.353.353 0 01.21-.454zm-.59-1.67l3-1.076c.19-.066.39.03.46.215a.358.358 0 01-.22.453l-3 1.076a.361.361 0 01-.46-.215.358.358 0 01.22-.454zm7.68-2.749l2.34-.836c.19-.066.39.03.46.215a.358.358 0 01-.22.454l-2.34.836a.35.35 0 01-.45-.215.353.353 0 01.21-.454zm-3.34 1.195l2.01-.717a.354.354 0 11.23.669l-2 .716a.35.35 0 01-.45-.214.353.353 0 01.21-.454zm1.07-2.268l4.01-1.434c.19-.066.39.03.46.215a.358.358 0 01-.22.454l-4.01 1.433a.354.354 0 01-.24-.668z" fill="#9BA7AF"/><path d="M1437.04 11.903l2.34-.836-4.54-2.147.84 2.34c.19.553.8.841 1.36.643z" fill="#CAD1D8"/><path d="M1439.38 11.067l-2.34.836 3.17 1.503-.83-2.34z" fill="#DDDDDC"/></g><g clip-path="url(#clip8)"><path d="M1365.9 299.507l-11.15-16.352a3.765 3.765 0 00-3.25-1.632l-19.85.772c-.43.025-.83.281-1.03.672-.15.378-.1.806.12 1.145l11.09 16.484a3.698 3.698 0 003.25 1.632l19.91-.904c.4-.022.77-.242.99-.59.19-.393.16-.86-.08-1.227z" fill="#B06328"/><path d="M1362.71 298.66l1.37-1.792-1.37-2.018-2.82 5.595-14.4-.804a2.477 2.477 0 01-1.76-.885l-13.13-15.744c-.13.368-.08.776.14 1.1l11.09 16.484a3.7 3.7 0 003.25 1.632l19.91-.904c.39-.019.75-.221.96-.546l-2.29-.123a1.245 1.245 0 01-1.21-1.27c.01-.264.1-.518.26-.725z" fill="#A35425"/><path d="M1365.98 300.734c-.22.347-.59.568-.99.59l-19.85.938a3.695 3.695 0 01-3.24-1.633l-11.16-16.517a1.257 1.257 0 01-.12-1.145l-11.15 22.189c-.43.863-.08 1.915.78 2.349l32.23 16.195a1.74 1.74 0 002.34-.777l11.16-22.189z" fill="#FFCB5B"/><path d="M1365.98 300.735a1.26 1.26 0 01-.99.589l-19.85.938a3.695 3.695 0 01-3.24-1.632l-11.16-16.517c-.06-.086-.1-.179-.14-.277-.01-.066-.02-.132-.02-.199l-.02-.1c-.01-.084 0-.168.01-.251l.01-.033c0-.083.01-.165.02-.246l.02-.039-.55 1.105c-.19.381-.18.835.05 1.2l10.56 17.362.12.199c.68 1.101.74 2.478.15 3.633l-1.79 3.574a3.756 3.756 0 01-5.04 1.668l-9.35-4.7a2.47 2.47 0 00-3.32 1.099l31.03 15.593c.86.434 1.91.086 2.34-.778l11.16-22.188z" fill="#F7B84E"/><path d="M1361.31 283.86l-18.23-9.161a1.856 1.856 0 00-2.49.824l-6.68 13.29 7.95 11.805a3.701 3.701 0 003.25 1.633l14.21-.668 4.74-9.423-2.75-8.3z" fill="#E9E9E9"/><path d="M1342.86 300.145l-8.65-11.917-.3.585 7.95 11.805a3.701 3.701 0 003.25 1.633l14.21-.668.3-.585-14.73.168a2.47 2.47 0 01-2.03-1.021z" fill="#DBDAD9"/><path d="M1348.04 282.727l7.74 3.886c.3.154.42.525.27.83a.616.616 0 01-.83.275l-7.73-3.886a.62.62 0 01-.28-.83.621.621 0 01.83-.275z" fill="#595A66"/><path d="M1342.23 284.65l7.74 3.887c.3.153.42.525.27.83a.615.615 0 01-.83.274l-7.73-3.886a.619.619 0 01-.28-.83.622.622 0 01.83-.275zm-2.77 5.524l11.6 5.83c.3.153.42.524.27.83a.615.615 0 01-.83.274l-11.6-5.829a.615.615 0 01-.27-.83.615.615 0 01.83-.275zm1.38-2.762l4.98 2.498c.3.154.42.525.27.83a.615.615 0 01-.83.275l-4.97-2.498a.62.62 0 01-.28-.83.622.622 0 01.83-.275zm12.71 6.385l3.87 1.943c.3.153.42.525.27.83a.616.616 0 01-.83.275l-3.87-1.943a.624.624 0 01-.27-.83.616.616 0 01.83-.275zm-5.52-2.776l3.31 1.666c.3.153.43.524.27.83a.615.615 0 01-.83.274l-3.31-1.665a.615.615 0 01-.27-.83.616.616 0 01.83-.275zm4.15-1.374l6.62 3.331a.62.62 0 01.28.83.62.62 0 01-.83.275l-6.63-3.331a.607.607 0 01-.27-.83.616.616 0 01.83-.275z" fill="#9BA7AF"/><path d="M1360.19 290.217l3.87 1.943-2.75-8.3-1.94 3.867c-.46.915-.09 2.03.82 2.49z" fill="#CAD1D8"/><path d="M1364.06 292.16l-3.87-1.943 1.92 5.809 1.95-3.866z" fill="#DDDDDC"/></g><defs><clipPath id="clip0"><path fill="#fff" transform="matrix(-1 0 0 1 443.789 168.852)" d="M0 0h423.202v535.615H0z"/></clipPath><clipPath id="clip1"><path fill="#fff" transform="rotate(27.896 -283.995 850.138)" d="M0 0h88.153v88.153H0z"/></clipPath><clipPath id="clip2"><path fill="#fff" transform="rotate(-16.887 561.046 -79.876)" d="M0 0h57.738v57.738H0z"/></clipPath><clipPath id="clip3"><path fill="#fff" transform="rotate(35.387 -519.992 200.326)" d="M0 0h33.147v33.147H0z"/></clipPath><clipPath id="clip4"><path fill="#fff" transform="rotate(-26.504 1352.549 -661.113)" d="M0 0h33.147v33.147H0z"/></clipPath><clipPath id="clip5"><path fill="#fff" transform="rotate(-24.909 391.178 -773.14)" d="M0 0h41.155v41.155H0z"/></clipPath><clipPath id="clip6"><path fill="#fff" transform="rotate(-28.145 1571.713 -2698.42)" d="M0 0h33.147v33.147H0z"/></clipPath><clipPath id="clip7"><path fill="#fff" transform="rotate(-19.672 741.745 -4071.546)" d="M0 0h33.147v33.147H0z"/></clipPath><clipPath id="clip8"><path fill="#fff" transform="rotate(26.683 115.288 2939.286)" d="M0 0h57.738v57.738H0z"/></clipPath></defs></svg>