<svg width="30" height="30" fill="none" xmlns="http://www.w3.org/2000/svg"><circle cx="15" cy="15" r="15" fill="#CCD8F7"/><path fill-rule="evenodd" clip-rule="evenodd" d="M21.7 5.921l5.503.415a15.171 15.171 0 00-1.682-1.998A14.924 14.924 0 0019.277.586l2.14 5.126-3.196 4.55h-6.448l-3.21-4.57 2.08-5.053a14.925 14.925 0 00-6.25 3.754 15.184 15.184 0 00-1.665 1.975l5.587-.418 3.137 4.467L9.49 16.46l-5.16 1.96-4.325-3.757a14.892 14.892 0 003.047 9.409l1.225-5.256 5.16-1.961 5.34 3.88.045 5.548-4.704 2.907c1.55.532 3.195.81 4.882.81 1.691 0 3.339-.279 4.892-.813l-4.719-2.907-.045-5.556 5.142-3.736 5.409 1.658 1.279 5.413a14.887 14.887 0 003.038-9.366l-4.166 3.631-5.356-1.642-2.003-6.164 3.228-4.597z" fill="#809EEB"/></svg>