<svg width="30" height="30" fill="none" xmlns="http://www.w3.org/2000/svg"><path d="M21.204 0a2.586 2.586 0 00-2.586 2.586 2.586 2.586 0 01-2.586 2.586v2.586h6.206a2.586 2.586 0 002.586-2.586 2.586 2.586 0 002.586-2.586A2.586 2.586 0 0029.996 0h-8.792zm-9.826 2.587A2.586 2.586 0 008.792 0H0a2.586 2.586 0 002.586 2.586 2.586 2.586 0 002.586 2.586 2.586 2.586 0 002.586 2.586h6.206V5.173a2.586 2.586 0 01-2.586-2.586z" fill="#809EEB"/><path d="M14.998 0a1.552 1.552 0 00-1.034 2.71v26.77h2.068V2.71A1.551 1.551 0 0014.998 0z" fill="#CCD8F7"/><path d="M14.998 29.996a.627.627 0 01-.14 0 3.879 3.879 0 010-7.758h2.726a1.552 1.552 0 100-3.103h-5.172V16.55h5.172a4.138 4.138 0 010 8.275h-2.255a1.758 1.758 0 00-1.764 1.753v.01c.003.409.143.805.399 1.123l.693.848" fill="#CCD8F7"/><path d="M8.74 19.1a4.655 4.655 0 01.569-9.274h1.034l1.552 1.552v1.034H9.309a2.069 2.069 0 000 4.138h8.275" fill="#CCD8F7"/><path d="M20.687 9.826h-1.034L18.1 11.378v1.034h2.586a2.069 2.069 0 010 4.138h-8.275a4.138 4.138 0 00-1.148 8.109 3.889 3.889 0 013.62-2.42h-2.472a1.551 1.551 0 110-3.104h8.275a4.654 4.654 0 100-9.309zm-2.069 16.291a3.812 3.812 0 00-.222-1.293l-.036-.077a3.864 3.864 0 01-.776.077h-2.255a2.594 2.594 0 00-.285 0c.617.33.998.977.988 1.676v.088a1.753 1.753 0 01-.636 1.34l-.74.62-.336.28a.651.651 0 00.362 1.147h.316a3.874 3.874 0 003.62-3.858z" fill="#809EEB"/><path d="M26.557 0c-1.474 4.551-6.729 6.31-10.525 7.24v.518h6.206a2.586 2.586 0 002.586-2.586 2.586 2.586 0 002.586-2.586A2.586 2.586 0 0029.996 0h-3.44z" fill="#CCD8F7"/></svg>