<svg width="585" height="543" fill="none" xmlns="http://www.w3.org/2000/svg"><path opacity=".5" d="M219.829 158.316h34.848v-42.315h48.787V1.5H66v114.501h109.522v3.982h30.866v30.368h13.441v7.965z" fill="#003DD6"/><path opacity=".5" d="M223 204.616v-45.801h-3.962v-7.467H205.17V120.98h-30.211v-4.48H66v88.116h157zm-157 1.15h157v87.617H66v-87.617zm0 87.618h157.314v85.626H66v-85.626z" fill="#003DD6"/><path opacity=".5" d="M254.67 344.162h-32.856v35.346H114.283v136.903H254.67V344.162zm60.572 39.109V344.5H256v171.986c27.215-.331 81.843-.795 82.64 0 .796.795.331-32.475 0-49.21h2.489v-84.005h-25.887z" fill="#003DD6"/><path opacity=".5" d="M343.914 383.33h85.495V531.5H339v-42.693h4.914V383.33z" fill="#003DD6"/><path opacity=".5" d="M408.5 356.323v27.505h20.909v147.521h93.592V308.816h-63.225v47.507H408.5z" fill="#003DD6"/></svg>