<svg width="16" height="17" fill="none" xmlns="http://www.w3.org/2000/svg"><path d="M14.625.875H1.09C.492.875 0 1.402 0 2.035V15.5c0 .633.492 1.125 1.09 1.125h13.535c.598 0 1.125-.492 1.125-1.125V2.035c0-.633-.527-1.16-1.125-1.16zm-9.879 13.5h-2.32V6.887h2.32v7.488zm-1.16-8.543c-.773 0-1.371-.598-1.371-1.336 0-.738.598-1.371 1.37-1.371.74 0 1.337.633 1.337 1.371s-.598 1.336-1.336 1.336zm9.914 8.543h-2.355v-3.656c0-.844 0-1.969-1.196-1.969-1.23 0-1.406.95-1.406 1.934v3.691h-2.32V6.887h2.215v1.02h.035c.316-.598 1.09-1.231 2.214-1.231 2.356 0 2.813 1.582 2.813 3.586v4.113z" fill="#fff"/></svg>